<svg xmlns="http://www.w3.org/2000/svg" xmlns:xlink="http://www.w3.org/1999/xlink" width="535" height="535" viewBox="0 0 535 535">
  <defs>
    <linearGradient id="linear-gradient" x1="0.5" x2="0.5" y2="1" gradientUnits="objectBoundingBox">
      <stop offset="0" stop-color="#4a54df"/>
      <stop offset="1" stop-color="#15d4d8"/>
    </linearGradient>
  </defs>
  <g id="BG-circulo" transform="translate(-693 -285)">
    <circle id="Elipse_7670" data-name="Elipse 7670" cx="173.5" cy="173.5" r="173.5" transform="translate(787 379)" opacity="0.18" fill="url(#linear-gradient)"/>
    <path id="Subtração_100" data-name="Subtração 100" d="M267.5-4645a269.506,269.506,0,0,1-53.911-5.435,266.147,266.147,0,0,1-50.213-15.587,267.528,267.528,0,0,1-45.439-24.663,269.455,269.455,0,0,1-39.589-32.664,269.392,269.392,0,0,1-32.664-39.589,267.5,267.5,0,0,1-24.663-45.438,266.163,266.163,0,0,1-15.587-50.213A269.481,269.481,0,0,1,0-4912.5a269.481,269.481,0,0,1,5.435-53.911,266.163,266.163,0,0,1,15.587-50.213,267.518,267.518,0,0,1,24.663-45.438,269.422,269.422,0,0,1,32.664-39.589,269.446,269.446,0,0,1,39.589-32.664,267.508,267.508,0,0,1,45.439-24.663,266.147,266.147,0,0,1,50.213-15.587A269.506,269.506,0,0,1,267.5-5180a269.5,269.5,0,0,1,53.91,5.435,266.149,266.149,0,0,1,50.212,15.587,267.514,267.514,0,0,1,45.439,24.663,269.426,269.426,0,0,1,39.589,32.664,269.417,269.417,0,0,1,32.664,39.589,267.525,267.525,0,0,1,24.663,45.438,266.171,266.171,0,0,1,15.587,50.213A269.476,269.476,0,0,1,535-4912.5a269.476,269.476,0,0,1-5.435,53.911,266.171,266.171,0,0,1-15.587,50.213,267.515,267.515,0,0,1-24.663,45.438,269.413,269.413,0,0,1-32.664,39.589,269.467,269.467,0,0,1-39.589,32.664,267.534,267.534,0,0,1-45.439,24.663,266.149,266.149,0,0,1-50.212,15.587A269.5,269.5,0,0,1,267.5-4645Zm0-523C126.617-5168,12-5053.383,12-4912.5S126.617-4657,267.5-4657,523-4771.617,523-4912.5,408.383-5168,267.5-5168Z" transform="translate(693 5465)" opacity="0.05" fill="url(#linear-gradient)"/>
    <path id="Subtração_101" data-name="Subtração 101" d="M221.5-4737a223.161,223.161,0,0,1-44.64-4.5,220.358,220.358,0,0,1-41.578-12.907,221.507,221.507,0,0,1-37.625-20.422,223.1,223.1,0,0,1-32.781-27.047,223.1,223.1,0,0,1-27.047-32.782,221.54,221.54,0,0,1-20.422-37.625A220.4,220.4,0,0,1,4.5-4913.86,223.136,223.136,0,0,1,0-4958.5a223.145,223.145,0,0,1,4.5-44.64,220.382,220.382,0,0,1,12.906-41.578,221.521,221.521,0,0,1,20.422-37.625,223.1,223.1,0,0,1,27.047-32.782,223.09,223.09,0,0,1,32.781-27.047,221.519,221.519,0,0,1,37.625-20.422,220.394,220.394,0,0,1,41.578-12.906,223.161,223.161,0,0,1,44.64-4.5,223.165,223.165,0,0,1,44.64,4.5,220.4,220.4,0,0,1,41.578,12.906,221.5,221.5,0,0,1,37.625,20.422,223.1,223.1,0,0,1,32.781,27.047,223.1,223.1,0,0,1,27.047,32.782,221.529,221.529,0,0,1,20.422,37.625A220.388,220.388,0,0,1,438.5-5003.14a223.137,223.137,0,0,1,4.5,44.64,223.132,223.132,0,0,1-4.5,44.64,220.41,220.41,0,0,1-12.906,41.578,221.527,221.527,0,0,1-20.422,37.625,223.1,223.1,0,0,1-27.047,32.782,223.091,223.091,0,0,1-32.781,27.047,221.529,221.529,0,0,1-37.625,20.422A220.36,220.36,0,0,1,266.14-4741.5,223.165,223.165,0,0,1,221.5-4737Zm0-433C104.878-5170,10-5075.122,10-4958.5S104.878-4747,221.5-4747,433-4841.878,433-4958.5,338.121-5170,221.5-5170Z" transform="translate(739 5511)" opacity="0.11" fill="url(#linear-gradient)"/>
  </g>
</svg>
