<svg xmlns="http://www.w3.org/2000/svg" width="34.762" height="32.689" viewBox="0 0 34.762 32.689">
    <g>
        <g>
            <g>
                <path fill="#fff" d="M10.594 45.455h.018H3.1l2.361-2.366a.62.62 0 0 0 0-.872l-.367-.368a.615.615 0 0 0-.868 0L.179 45.9a.619.619 0 0 0 0 .871l4.048 4.048a.615.615 0 0 0 .868 0l.367-.368a.608.608 0 0 0 .179-.434.59.59 0 0 0-.179-.426l-2.388-2.38H10.6a.636.636 0 0 0 .623-.63v-.52a.624.624 0 0 0-.629-.606z" transform="translate(6801.326 -2213.715) translate(-6789.557 2228.391) translate(0 -41.674)"/>
            </g>
        </g>
        <g fill="none">
            <path d="M7.1 32.754a2 2 0 0 1-2-2V17.436H2.335a2 2 0 0 1-1.312-3.509L16.4.555a2 2 0 0 1 2.625 0L34.4 13.927a2 2 0 0 1-1.312 3.509h-2.761v13.318a2 2 0 0 1-2 2z" transform="translate(6801.326 -2213.715) translate(-6801.656 2213.65)"/>
            <path fill="#fff" d="M27.827 30.254V14.936h3.924l-14.04-12.21-14.04 12.21h3.926v15.318h20.23m.5 2.5H7.097c-1.105 0-2-.896-2-2V17.436H2.335c-1.85 0-2.709-2.296-1.313-3.51L16.4.557c.377-.328.845-.491 1.313-.491.468 0 .936.163 1.312.49l15.377 13.372c1.396 1.213.537 3.509-1.312 3.509h-2.762v13.318c0 1.104-.895 2-2 2z" transform="translate(6801.326 -2213.715) translate(-6801.656 2213.65)"/>
        </g>
    </g>
</svg>
