<svg id="Do_you_have_any_other_issues" data-name="Do you have any other issues" xmlns="http://www.w3.org/2000/svg" xmlns:xlink="http://www.w3.org/1999/xlink" width="55.425" height="55.425" viewBox="0 0 55.425 55.425">
  <defs>
    <linearGradient id="linear-gradient" x1="0.5" x2="0.5" y2="1" gradientUnits="objectBoundingBox">
      <stop offset="0" stop-color="#4a54df"/>
      <stop offset="1" stop-color="#15d4d8"/>
    </linearGradient>
  </defs>
  <path id="Caminho_5479" data-name="Caminho 5479" d="M134.909,353.5a1.624,1.624,0,0,0,.012,2.308,1.63,1.63,0,0,0,2.285-.012l2.269-2.269v-4.593Zm0,0" transform="translate(-119.881 -311.164)" fill="url(#linear-gradient)"/>
  <path id="Caminho_5480" data-name="Caminho 5480" d="M140.578,99.149l-3.373-3.373a1.63,1.63,0,0,0-2.285-.012,1.624,1.624,0,0,0-.012,2.308l4.342,4.342h2.417A6.989,6.989,0,0,1,140.578,99.149Zm0,0" transform="translate(-119.881 -84.986)" fill="url(#linear-gradient)"/>
  <path id="Caminho_5481" data-name="Caminho 5481" d="M221,94.672l0,.048c0,.023,0,.046,0,.069a3.789,3.789,0,1,0,7.578,0c0-.023,0-.047,0-.069v-.048a.088.088,0,0,1,0-.011,3.788,3.788,0,0,0-7.571,0A.088.088,0,0,0,221,94.672Zm0,0" transform="translate(-197.076 -81.149)" fill="url(#linear-gradient)"/>
  <path id="Caminho_5482" data-name="Caminho 5482" d="M310.73,102.414h2.417l4.342-4.342a1.624,1.624,0,0,0-.012-2.308,1.63,1.63,0,0,0-2.285.012l-3.373,3.373A6.99,6.99,0,0,1,310.73,102.414Zm0,0" transform="translate(-277.094 -84.986)" fill="url(#linear-gradient)"/>
  <path id="Caminho_5483" data-name="Caminho 5483" d="M140.771,191H112.693A1.669,1.669,0,0,0,111,192.577a1.623,1.623,0,0,0,1.623,1.671H120.2a1.624,1.624,0,0,1,1.624,1.624v21.542a1.624,1.624,0,1,0,3.248,0v-11.8a1.624,1.624,0,1,1,3.248,0v11.8a1.624,1.624,0,1,0,3.248,0V195.871a1.624,1.624,0,0,1,1.624-1.624h7.51a1.669,1.669,0,0,0,1.691-1.577A1.623,1.623,0,0,0,140.771,191Zm0,0" transform="translate(-98.986 -171.589)" fill="url(#linear-gradient)"/>
  <path id="Caminho_5484" data-name="Caminho 5484" d="M333.269,355.8a1.624,1.624,0,1,0,2.3-2.3L331,348.938v4.593Zm0,0" transform="translate(-295.169 -311.164)" fill="url(#linear-gradient)"/>
  <path id="Caminho_5485" data-name="Caminho 5485" d="M27.712,0A27.712,27.712,0,1,0,55.425,27.712,27.712,27.712,0,0,0,27.712,0ZM46.654,22.436a4.939,4.939,0,0,1-4.937,4.736H35.831V33.18l6.862,6.862a4.871,4.871,0,0,1-6.862,6.915v.132a4.869,4.869,0,0,1-8.119,3.628,4.869,4.869,0,0,1-8.119-3.628v-.132a4.871,4.871,0,0,1-6.861-6.915l6.861-6.862V27.171H13.64a4.872,4.872,0,0,1-4.87-5.007,4.939,4.939,0,0,1,4.937-4.736h1.07l-2.046-2.046a4.871,4.871,0,0,1,.036-6.925,4.888,4.888,0,0,1,6.853.036l1.868,1.868a7.032,7.032,0,0,1,12.447,0L35.8,8.494a4.871,4.871,0,1,1,6.889,6.889l-2.046,2.046h1.138a4.871,4.871,0,0,1,4.869,5.007Zm0,0" fill="url(#linear-gradient)"/>
</svg>
