<svg xmlns="http://www.w3.org/2000/svg" id="Layer_2" width="24" height="24" data-name="Layer 2" viewBox="0 0 24 24">
    <defs>
        <style>
            .cls-1{opacity:0}.cls-1,.cls-2{fill:url(#linear-gradient)}
        </style>
        <linearGradient id="linear-gradient" x1=".5" x2=".5" y2="1" gradientUnits="objectBoundingBox">
            <stop offset="0" stop-color="#4a54df"/>
            <stop offset="1" stop-color="#15d4d8"/>
        </linearGradient>
    </defs>
    <g id="refresh">
        <path id="Retângulo_3184" d="M0 0h24v24H0z" class="cls-1" data-name="Retângulo 3184"/>
        <path id="Caminho_5469" d="M20.3 13.43a1 1 0 0 0-1.25.65A7.14 7.14 0 0 1 12.18 19 7.1 7.1 0 0 1 5 12a7.1 7.1 0 0 1 7.18-7 7.26 7.26 0 0 1 4.65 1.67l-2.17-.36a1 1 0 1 0-.32 1.98l4.24.7h.17a1 1 0 0 0 .34-.06.33.33 0 0 0 .1-.06.78.78 0 0 0 .2-.11l.09-.11c0-.05.09-.09.13-.15s0-.1.05-.14a1.34 1.34 0 0 0 .07-.18l.75-4a1.018 1.018 0 0 0-2-.38l-.27 1.45A9.21 9.21 0 0 0 12.18 3 9.1 9.1 0 0 0 3 12a9.1 9.1 0 0 0 9.18 9A9.12 9.12 0 0 0 21 14.68a1 1 0 0 0-.7-1.25z" class="cls-2" data-name="Caminho 5469"/>
    </g>
</svg>