<svg xmlns="http://www.w3.org/2000/svg" xmlns:xlink="http://www.w3.org/1999/xlink" width="66" height="66" viewBox="0 0 66 66">
  <defs>
    <linearGradient id="linear-gradient" x1="-0.128" y1="-0.014" x2="-0.068" y2="1.02" gradientUnits="objectBoundingBox">
      <stop offset="0" stop-color="#4a54df"/>
      <stop offset="1" stop-color="#15d4d8"/>
    </linearGradient>
    <linearGradient id="linear-gradient-3" x1="0.5" y1="0" x2="0.5" y2="1" xlink:href="#linear-gradient"/>
  </defs>
  <g id="ANKLES" transform="translate(-78 -358)">
    <g id="Grupo_450" data-name="Grupo 450" transform="translate(78 358)">
      <g id="Grupo_301" data-name="Grupo 301" transform="translate(0)">
        <g id="Grupo_299" data-name="Grupo 299">
          <path id="XMLID_17_" d="M0,33.086A33.365,33.365,0,0,0,3.523,48.018a1.521,1.521,0,0,0,2.181.559h0a1.5,1.5,0,0,0,.5-1.846A30.341,30.341,0,0,1,29.36,3a1.5,1.5,0,0,0,1.286-1.454h0A1.472,1.472,0,0,0,28.969.09,33.237,33.237,0,0,0,0,33.086Z" transform="translate(0 -0.023)" fill="url(#linear-gradient)"/>
          <path id="XMLID_16_" d="M64.3,1.5h0a1.455,1.455,0,0,0,1.286,1.454,30.327,30.327,0,0,1,26.4,30.087A30.758,30.758,0,0,1,88.8,46.632a1.417,1.417,0,0,0,.5,1.846h0a1.481,1.481,0,0,0,2.181-.559A33.3,33.3,0,0,0,66.034-.009,1.533,1.533,0,0,0,64.3,1.5Z" transform="translate(-29.003 0.02)" fill="url(#linear-gradient)"/>
          <path id="XMLID_15_" d="M39.333,104.9A29.656,29.656,0,0,1,16.924,94.662a1.435,1.435,0,0,0-1.932-.224h0a1.5,1.5,0,0,0-.276,2.181A32.581,32.581,0,0,0,64,96.563a1.5,1.5,0,0,0-.276-2.181h0a1.435,1.435,0,0,0-1.932.224A29.719,29.719,0,0,1,39.333,104.9Z" transform="translate(-6.332 -41.86)" fill="#15d4d8"/>
        </g>
      </g>
    </g>
    <path id="ankle" d="M31.921,33.695A2.041,2.041,0,0,0,30.533,32.3l-.475-.139c-2.826-.518-10.452-1.312-16.54-8.553-1.11-1.32-2.292-2.056-2.423-6.277V8.76A1.218,1.218,0,0,0,9.877,7.542H2.123a1.217,1.217,0,0,0-1.215,1.3l.912,13.107a10.313,10.313,0,0,1-.806,4.771l-.2.462A7.244,7.244,0,0,0,8.355,37.689L9.83,37.46a24.621,24.621,0,0,1,4.765-.271l12.059.485a6.127,6.127,0,0,0,4.833-2.059h0A2.041,2.041,0,0,0,31.921,33.695ZM3.838,24.632A.879.879,0,1,1,4.4,25.739.879.879,0,0,1,3.838,24.632Zm4.235,7.6a.879.879,0,0,1-1.154.463,5.325,5.325,0,0,1-3.241-4.946l0-.458a.879.879,0,0,1,.879-.873h.006a.879.879,0,0,1,.873.885l0,.458a3.57,3.57,0,0,0,2.173,3.317A.879.879,0,0,1,8.072,32.236Z" transform="translate(100.483 368.282)" fill="url(#linear-gradient-3)"/>
    <rect id="Retângulo_3742" data-name="Retângulo 3742" width="2.561" height="6.952" rx="1.281" transform="matrix(0.358, -0.934, 0.934, 0.358, 90.606, 392.316)" fill="url(#linear-gradient-3)"/>
    <rect id="Retângulo_3743" data-name="Retângulo 3743" width="2.561" height="6.952" rx="1.281" transform="matrix(0.899, -0.438, 0.438, 0.899, 95.153, 384.666)" fill="url(#linear-gradient-3)"/>
    <rect id="Retângulo_3744" data-name="Retângulo 3744" width="2.561" height="6.952" rx="1.281" transform="matrix(-0.469, -0.883, 0.883, -0.469, 91.868, 401.744)" fill="url(#linear-gradient-3)"/>
  </g>
</svg>
