<svg xmlns="http://www.w3.org/2000/svg" xmlns:xlink="http://www.w3.org/1999/xlink" width="66" height="66" viewBox="0 0 66 66">
  <defs>
    <linearGradient id="linear-gradient" x1="-0.128" y1="-0.014" x2="-0.068" y2="1.02" gradientUnits="objectBoundingBox">
      <stop offset="0" stop-color="#4a54df"/>
      <stop offset="1" stop-color="#15d4d8"/>
    </linearGradient>
    <linearGradient id="linear-gradient-3" x1="0.5" y1="0" x2="0.5" y2="1" xlink:href="#linear-gradient"/>
  </defs>
  <g id="ARMS" transform="translate(-1169 -195)">
    <g id="Grupo_10087" data-name="Grupo 10087" transform="translate(1169 195)">
      <g id="Grupo_301" data-name="Grupo 301" transform="translate(0 0)">
        <g id="Grupo_299" data-name="Grupo 299" transform="translate(0 0)">
          <path id="XMLID_17_" d="M0,33.086A33.365,33.365,0,0,0,3.523,48.018a1.521,1.521,0,0,0,2.181.559h0a1.5,1.5,0,0,0,.5-1.846A30.341,30.341,0,0,1,29.36,3a1.5,1.5,0,0,0,1.286-1.454h0A1.472,1.472,0,0,0,28.969.09,33.237,33.237,0,0,0,0,33.086Z" transform="translate(0 -0.023)" fill="url(#linear-gradient)"/>
          <path id="XMLID_16_" d="M64.3,1.5h0a1.455,1.455,0,0,0,1.286,1.454,30.327,30.327,0,0,1,26.4,30.087A30.758,30.758,0,0,1,88.8,46.632a1.417,1.417,0,0,0,.5,1.846h0a1.481,1.481,0,0,0,2.181-.559A33.3,33.3,0,0,0,66.034-.009,1.533,1.533,0,0,0,64.3,1.5Z" transform="translate(-29.003 0.02)" fill="url(#linear-gradient)"/>
          <path id="XMLID_15_" d="M39.333,104.9A29.656,29.656,0,0,1,16.924,94.662a1.435,1.435,0,0,0-1.932-.224h0a1.5,1.5,0,0,0-.276,2.181A32.581,32.581,0,0,0,64,96.563a1.5,1.5,0,0,0-.276-2.181h0a1.435,1.435,0,0,0-1.932.224A29.719,29.719,0,0,1,39.333,104.9Z" transform="translate(-6.332 -41.86)" fill="#15d4d8"/>
        </g>
      </g>
    </g>
    <path id="human-arm" d="M38.111,16.563l-.776,0a.8.8,0,0,0,.471-.726.9.9,0,0,0-1-.871l-6.452.213a.339.339,0,0,1-.228-.6l1.155-.964a1,1,0,0,0-1.242-1.561s-2.724,2.175-3.637,2.893A7.429,7.429,0,0,1,21.091,16.5c-4.211-.409-8.668-.661-10.469-.148L10.387.817A.829.829,0,0,0,9.558,0H.829A.829.829,0,0,0,.018,1l3.94,18.871a5.332,5.332,0,0,0,5.949,4.194c4.352-.6,9.288-1.636,13.415-2.5a11.194,11.194,0,0,1,3.875-.126,45.487,45.487,0,0,0,7.281.456c.551,0,1-.2.994-.754a.8.8,0,0,0-.477-.723l1.655-.006a1,1,0,0,0,.517-1.847l.951,0a1,1,0,0,0-.007-2ZM1.571,2.858a.925.925,0,1,1,.925.925A.925.925,0,0,1,1.571,2.858Zm2.737,9.357a.924.924,0,0,1-1.079-.739L2.1,5.418a.925.925,0,1,1,1.818-.34l1.133,6.058A.925.925,0,0,1,4.308,12.215Z" transform="translate(1186.169 243.513) rotate(-79)" fill="url(#linear-gradient-3)"/>
  </g>
</svg>
