<svg xmlns="http://www.w3.org/2000/svg" xmlns:xlink="http://www.w3.org/1999/xlink" width="66" height="66" viewBox="0 0 66 66">
  <defs>
    <linearGradient id="linear-gradient" x1="-0.128" y1="-0.014" x2="-0.068" y2="1.02" gradientUnits="objectBoundingBox">
      <stop offset="0" stop-color="#4a54df"/>
      <stop offset="1" stop-color="#15d4d8"/>
    </linearGradient>
    <linearGradient id="linear-gradient-3" x1="0.5" y1="0" x2="0.5" y2="1" xlink:href="#linear-gradient"/>
  </defs>
  <g id="BLADDER" transform="translate(-377 -147)">
    <g id="MENSTRUATION" transform="translate(299 -211)">
      <g id="Grupo_450" data-name="Grupo 450" transform="translate(78 358)">
        <g id="Grupo_301" data-name="Grupo 301" transform="translate(0)">
          <g id="Grupo_299" data-name="Grupo 299">
            <path id="XMLID_17_" d="M0,33.086A33.365,33.365,0,0,0,3.523,48.018a1.521,1.521,0,0,0,2.181.559h0a1.5,1.5,0,0,0,.5-1.846A30.341,30.341,0,0,1,29.36,3a1.5,1.5,0,0,0,1.286-1.454h0A1.472,1.472,0,0,0,28.969.09,33.237,33.237,0,0,0,0,33.086Z" transform="translate(0 -0.023)" fill="url(#linear-gradient)"/>
            <path id="XMLID_16_" d="M64.3,1.5h0a1.455,1.455,0,0,0,1.286,1.454,30.327,30.327,0,0,1,26.4,30.087A30.758,30.758,0,0,1,88.8,46.632a1.417,1.417,0,0,0,.5,1.846h0a1.481,1.481,0,0,0,2.181-.559A33.3,33.3,0,0,0,66.034-.009,1.533,1.533,0,0,0,64.3,1.5Z" transform="translate(-29.003 0.02)" fill="url(#linear-gradient)"/>
            <path id="XMLID_15_" d="M39.333,104.9A29.656,29.656,0,0,1,16.924,94.662a1.435,1.435,0,0,0-1.932-.224h0a1.5,1.5,0,0,0-.276,2.181A32.581,32.581,0,0,0,64,96.563a1.5,1.5,0,0,0-.276-2.181h0a1.435,1.435,0,0,0-1.932.224A29.719,29.719,0,0,1,39.333,104.9Z" transform="translate(-6.332 -41.86)" fill="#15d4d8"/>
          </g>
        </g>
      </g>
    </g>
    <path id="bladder-2" data-name="bladder" d="M42.494,37.152l-3.12-3.12a1.093,1.093,0,0,0-1.546,0l-1.383,1.383a7.124,7.124,0,0,1-7.588,1.613,20.869,20.869,0,0,0-7.451-1.334,20.87,20.87,0,0,0-7.451,1.334,7.126,7.126,0,0,1-7.588-1.613L4.985,34.032a1.093,1.093,0,0,0-1.546,0L.32,37.152a1.093,1.093,0,0,0,0,1.546l3.229,3.229a7.117,7.117,0,0,1,2.085,5.032c0,4.209,3.232,7.879,8.019,9.813a7.124,7.124,0,0,1,4.454,6.6v1.632A1.093,1.093,0,0,0,19.2,66.1h4.412a1.093,1.093,0,0,0,1.093-1.093V63.374a7.123,7.123,0,0,1,4.454-6.6c4.788-1.934,8.019-5.6,8.019-9.813a7.114,7.114,0,0,1,2.085-5.032L42.493,38.7A1.093,1.093,0,0,0,42.494,37.152Zm-31.4,6.854a1.16,1.16,0,1,1,1.16-1.16A1.16,1.16,0,0,1,11.093,44.006Zm16.493-3.48a1.159,1.159,0,0,1-1.358.919,20.658,20.658,0,0,0-3.894-.366A19.841,19.841,0,0,0,15.3,42.337a1.16,1.16,0,1,1-.831-2.165,22.177,22.177,0,0,1,7.866-1.411,22.962,22.962,0,0,1,4.332.408A1.159,1.159,0,0,1,27.587,40.526Z" transform="translate(389.023 131.812)" fill="url(#linear-gradient-3)"/>
  </g>
</svg>
