<svg xmlns="http://www.w3.org/2000/svg" xmlns:xlink="http://www.w3.org/1999/xlink" width="66" height="66" viewBox="0 0 66 66">
  <defs>
    <linearGradient id="linear-gradient" x1="-0.128" y1="-0.014" x2="-0.068" y2="1.02" gradientUnits="objectBoundingBox">
      <stop offset="0" stop-color="#4a54df"/>
      <stop offset="1" stop-color="#15d4d8"/>
    </linearGradient>
    <linearGradient id="linear-gradient-3" x1="0.5" y1="0" x2="0.5" y2="1" xlink:href="#linear-gradient"/>
  </defs>
  <g id="BUTTOCKS" transform="translate(-1169 -195)">
    <g id="Grupo_10328" data-name="Grupo 10328">
      <g id="Grupo_10087" data-name="Grupo 10087" transform="translate(1169 195)">
        <g id="Grupo_301" data-name="Grupo 301" transform="translate(0 0)">
          <g id="Grupo_299" data-name="Grupo 299" transform="translate(0 0)">
            <path id="XMLID_17_" d="M0,33.086A33.365,33.365,0,0,0,3.523,48.018a1.521,1.521,0,0,0,2.181.559h0a1.5,1.5,0,0,0,.5-1.846A30.341,30.341,0,0,1,29.36,3a1.5,1.5,0,0,0,1.286-1.454h0A1.472,1.472,0,0,0,28.969.09,33.237,33.237,0,0,0,0,33.086Z" transform="translate(0 -0.023)" fill="url(#linear-gradient)"/>
            <path id="XMLID_16_" d="M64.3,1.5h0a1.455,1.455,0,0,0,1.286,1.454,30.327,30.327,0,0,1,26.4,30.087A30.758,30.758,0,0,1,88.8,46.632a1.417,1.417,0,0,0,.5,1.846h0a1.481,1.481,0,0,0,2.181-.559A33.3,33.3,0,0,0,66.034-.009,1.533,1.533,0,0,0,64.3,1.5Z" transform="translate(-29.003 0.02)" fill="url(#linear-gradient)"/>
            <path id="XMLID_15_" d="M39.333,104.9A29.656,29.656,0,0,1,16.924,94.662a1.435,1.435,0,0,0-1.932-.224h0a1.5,1.5,0,0,0-.276,2.181A32.581,32.581,0,0,0,64,96.563a1.5,1.5,0,0,0-.276-2.181h0a1.435,1.435,0,0,0-1.932.224A29.719,29.719,0,0,1,39.333,104.9Z" transform="translate(-6.332 -41.86)" fill="#15d4d8"/>
          </g>
        </g>
      </g>
    </g>
    <path id="human-back" d="M71.1,15.4l-1.017-2.541a16.824,16.824,0,0,1-.78-10l.3-1.327A1.253,1.253,0,0,0,68.385,0H53.315a1.253,1.253,0,0,0-1.222,1.533l.3,1.327a16.824,16.824,0,0,1-.78,10L50.6,15.4a19.967,19.967,0,0,0-1.346,9.223l.819,9.007a1.253,1.253,0,0,0,1.248,1.14h8.827V25.709a5.482,5.482,0,0,1-3.77,1.5H55.1a.87.87,0,1,1,0-1.74h1.277a3.768,3.768,0,0,0,3.763-3.763V20.67a.87.87,0,0,1,.87-.87h.007a.87.87,0,0,1,.87.87v1.035a3.768,3.768,0,0,0,3.763,3.763H66.7a.87.87,0,0,1,0,1.74H65.652a5.483,5.483,0,0,1-3.763-1.493v9.052H70.38a1.253,1.253,0,0,0,1.248-1.14l.819-9.007A19.968,19.968,0,0,0,71.1,15.4ZM51.253,29.631l-.429-5.29a.87.87,0,0,1,1.735-.141l.429,5.29a.87.87,0,0,1-.8.938c-.024,0-.048,0-.071,0A.87.87,0,0,1,51.253,29.631ZM52.425,32.8a.87.87,0,1,1,.87-.87A.87.87,0,0,1,52.425,32.8ZM60.062,16.5a.7.7,0,0,1-.9.4l-2.382-.928a.7.7,0,1,1,.506-1.3l2.382.928A.7.7,0,0,1,60.062,16.5Zm4.861-.532-2.382.928a.7.7,0,0,1-.506-1.3l2.382-.928a.7.7,0,0,1,.506,1.3Z" transform="translate(1141.016 210.282)" fill="url(#linear-gradient-3)"/>
  </g>
</svg>
