<svg xmlns="http://www.w3.org/2000/svg" xmlns:xlink="http://www.w3.org/1999/xlink" width="66" height="66" viewBox="0 0 66 66">
  <defs>
    <linearGradient id="linear-gradient" x1="-0.128" y1="-0.014" x2="-0.068" y2="1.02" gradientUnits="objectBoundingBox">
      <stop offset="0" stop-color="#4a54df"/>
      <stop offset="1" stop-color="#15d4d8"/>
    </linearGradient>
    <linearGradient id="linear-gradient-3" x1="0.5" y1="0" x2="0.5" y2="1" xlink:href="#linear-gradient"/>
  </defs>
  <g id="EARS" transform="translate(-426 -304)">
    <g id="Grupo_10327" data-name="Grupo 10327" transform="translate(426 304)">
      <g id="Grupo_450" data-name="Grupo 450" transform="translate(0 0)">
        <g id="Grupo_301" data-name="Grupo 301" transform="translate(0 0)">
          <g id="Grupo_299" data-name="Grupo 299">
            <path id="XMLID_17_" d="M0,33.086A33.365,33.365,0,0,0,3.523,48.018a1.521,1.521,0,0,0,2.181.559h0a1.5,1.5,0,0,0,.5-1.846A30.341,30.341,0,0,1,29.36,3a1.5,1.5,0,0,0,1.286-1.454h0A1.472,1.472,0,0,0,28.969.09,33.237,33.237,0,0,0,0,33.086Z" transform="translate(0 -0.023)" fill="url(#linear-gradient)"/>
            <path id="XMLID_16_" d="M64.3,1.5h0a1.455,1.455,0,0,0,1.286,1.454,30.327,30.327,0,0,1,26.4,30.087A30.758,30.758,0,0,1,88.8,46.632a1.417,1.417,0,0,0,.5,1.846h0a1.481,1.481,0,0,0,2.181-.559A33.3,33.3,0,0,0,66.034-.009,1.533,1.533,0,0,0,64.3,1.5Z" transform="translate(-29.003 0.02)" fill="url(#linear-gradient)"/>
            <path id="XMLID_15_" d="M39.333,104.9A29.656,29.656,0,0,1,16.924,94.662a1.435,1.435,0,0,0-1.932-.224h0a1.5,1.5,0,0,0-.276,2.181A32.581,32.581,0,0,0,64,96.563a1.5,1.5,0,0,0-.276-2.181h0a1.435,1.435,0,0,0-1.932.224A29.719,29.719,0,0,1,39.333,104.9Z" transform="translate(-6.332 -41.86)" fill="#15d4d8"/>
          </g>
        </g>
      </g>
    </g>
    <path id="ear" d="M59.788,3.536A12.567,12.567,0,0,0,50.73,0,12.4,12.4,0,0,0,38.342,12.388V25.961c0,5.262,2.365,8.4,6.326,8.4,5.738,0,7.642-4.028,8.779-6.435l.028-.06A11.668,11.668,0,0,1,58,22.907c2.6-1.813,5.046-3.526,5.119-10.509a12.081,12.081,0,0,0-3.331-8.862ZM51.933,6.344a6.943,6.943,0,0,0-8.341,5.131c-.18.708-.48,1.894-.127,2.475a1.087,1.087,0,0,0,.781.466,5.391,5.391,0,0,1,4.022,3.729c.3,1.127.408,3.373-2.177,5.762a.938.938,0,0,1-1.273-1.378c1.382-1.277,1.963-2.664,1.636-3.907a3.5,3.5,0,0,0-2.638-2.381,2.963,2.963,0,0,1-1.954-1.319c-.761-1.253-.34-2.915-.088-3.909a8.6,8.6,0,0,1,4-5.46,9.467,9.467,0,0,1,6.5-1.055,8.437,8.437,0,0,1,6.117,4.609.938.938,0,1,1-1.683.827,6.578,6.578,0,0,0-4.771-3.591ZM56.9,19.1a.938.938,0,0,1-1.21-1.433c1.931-1.63,1.774-4.61,1.772-4.64a.938.938,0,0,1,1.872-.114C59.346,13.071,59.545,16.866,56.9,19.1Z" transform="translate(408.257 319.584)" fill="url(#linear-gradient-3)"/>
  </g>
</svg>
