<svg xmlns="http://www.w3.org/2000/svg" xmlns:xlink="http://www.w3.org/1999/xlink" width="66" height="66" viewBox="0 0 66 66">
  <defs>
    <linearGradient id="linear-gradient" x1="-0.128" y1="-0.014" x2="-0.068" y2="1.02" gradientUnits="objectBoundingBox">
      <stop offset="0" stop-color="#4a54df"/>
      <stop offset="1" stop-color="#15d4d8"/>
    </linearGradient>
    <linearGradient id="linear-gradient-3" x1="0.5" y1="0" x2="0.5" y2="1" xlink:href="#linear-gradient"/>
  </defs>
  <g id="FOOT_SKIN" data-name="FOOT SKIN" transform="translate(-713 -147)">
    <g id="HIPS" transform="translate(336)">
      <g id="MENSTRUATION" transform="translate(299 -211)">
        <g id="Grupo_450" data-name="Grupo 450" transform="translate(78 358)">
          <g id="Grupo_301" data-name="Grupo 301" transform="translate(0)">
            <g id="Grupo_299" data-name="Grupo 299">
              <path id="XMLID_17_" d="M0,33.086A33.365,33.365,0,0,0,3.523,48.018a1.521,1.521,0,0,0,2.181.559h0a1.5,1.5,0,0,0,.5-1.846A30.341,30.341,0,0,1,29.36,3a1.5,1.5,0,0,0,1.286-1.454h0A1.472,1.472,0,0,0,28.969.09,33.237,33.237,0,0,0,0,33.086Z" transform="translate(0 -0.023)" fill="url(#linear-gradient)"/>
              <path id="XMLID_16_" d="M64.3,1.5h0a1.455,1.455,0,0,0,1.286,1.454,30.327,30.327,0,0,1,26.4,30.087A30.758,30.758,0,0,1,88.8,46.632a1.417,1.417,0,0,0,.5,1.846h0a1.481,1.481,0,0,0,2.181-.559A33.3,33.3,0,0,0,66.034-.009,1.533,1.533,0,0,0,64.3,1.5Z" transform="translate(-29.003 0.02)" fill="url(#linear-gradient)"/>
              <path id="XMLID_15_" d="M39.333,104.9A29.656,29.656,0,0,1,16.924,94.662a1.435,1.435,0,0,0-1.932-.224h0a1.5,1.5,0,0,0-.276,2.181A32.581,32.581,0,0,0,64,96.563a1.5,1.5,0,0,0-.276-2.181h0a1.435,1.435,0,0,0-1.932.224A29.719,29.719,0,0,1,39.333,104.9Z" transform="translate(-6.332 -41.86)" fill="#15d4d8"/>
            </g>
          </g>
        </g>
      </g>
    </g>
    <path id="Caminho_10311" data-name="Caminho 10311" d="M46.188,7.788a1.276,1.276,0,0,1-.043-1.695,3.684,3.684,0,0,0,.869-2.38,3.734,3.734,0,0,0-7.444-.4,2.591,2.591,0,0,0-1.779-.721A2.882,2.882,0,0,0,35.049,5.6a3.327,3.327,0,0,0,.022.364A2.054,2.054,0,0,0,33.92,5.6a2.819,2.819,0,0,0-2.477,2.774,1.991,1.991,0,0,0-.286-.023,2.013,2.013,0,0,0-2.005,2.022c0,.881,0,23.588,4.286,29.012a6.89,6.89,0,0,0,5.306,2.958,6.238,6.238,0,0,0,5.918-8.21L43.9,31.841a20.979,20.979,0,0,1,1.138-16.017l1.8-3.594a3.932,3.932,0,0,0-.644-4.442ZM31.738,25.952c-.6-4.921-.717-9.906-.719-9.956a1.144,1.144,0,0,1,2.287-.052c0,.049.118,4.926.7,9.731a1.144,1.144,0,0,1-1,1.274,1.17,1.17,0,0,1-.14.009A1.144,1.144,0,0,1,31.738,25.952Zm1.524,4.159a1.1,1.1,0,1,1,1.1-1.1A1.1,1.1,0,0,1,33.263,30.111Z" transform="translate(698.422 158.338)" fill="url(#linear-gradient-3)"/>
    <g id="hair" transform="translate(746.268 170.746)">
      <path id="Caminho_6729" data-name="Caminho 6729" d="M19.074,144.491h-5.63a8,8,0,0,1,.338,2.978,3.911,3.911,0,0,1-3.891,3.492,3.967,3.967,0,0,1-.43-.023,3.722,3.722,0,0,1-2.573-1.457,4.6,4.6,0,0,1-.9-2.745,10.416,10.416,0,0,1,.268-2.244H.94a.94.94,0,0,0-.94.94v6.492a.94.94,0,0,0,.94.94H19.074a.94.94,0,0,0,.94-.94v-6.492A.94.94,0,0,0,19.074,144.491Z" transform="translate(0 -136.724)" fill="url(#linear-gradient-3)"/>
      <path id="Caminho_6730" data-name="Caminho 6730" d="M106.714,42.055a2.944,2.944,0,0,0,.32.018,2.911,2.911,0,0,0,2.889-2.594c.335-3.058-2.567-5.74.106-9.934a.456.456,0,0,0-.668-.6,13.515,13.515,0,0,0-5.224,9.9A3.047,3.047,0,0,0,106.714,42.055Zm-.186-1.42a.5.5,0,1,1-.5-.5A.5.5,0,0,1,106.528,40.635Zm-1.493-3.708a.5.5,0,0,1,.971.268,4.883,4.883,0,0,0-.077,2.147.494.494,0,0,1-.315.579l-.009,0a.5.5,0,0,1-.654-.347A5.981,5.981,0,0,1,105.035,36.928Z" transform="translate(-97.143 -28.843)" fill="url(#linear-gradient-3)"/>
    </g>
  </g>
</svg>
