<svg xmlns="http://www.w3.org/2000/svg" xmlns:xlink="http://www.w3.org/1999/xlink" width="66" height="66" viewBox="0 0 66 66">
  <defs>
    <linearGradient id="linear-gradient" x1="-0.128" y1="-0.014" x2="-0.068" y2="1.02" gradientUnits="objectBoundingBox">
      <stop offset="0" stop-color="#4a54df"/>
      <stop offset="1" stop-color="#15d4d8"/>
    </linearGradient>
    <linearGradient id="linear-gradient-3" x1="0.5" y1="0" x2="0.5" y2="1" xlink:href="#linear-gradient"/>
  </defs>
  <g id="GENITALS-male" transform="translate(-377 -147)">
    <g id="MENSTRUATION" transform="translate(299 -211)">
      <g id="Grupo_450" data-name="Grupo 450" transform="translate(78 358)">
        <g id="Grupo_301" data-name="Grupo 301" transform="translate(0)">
          <g id="Grupo_299" data-name="Grupo 299">
            <path id="XMLID_17_" d="M0,33.086A33.365,33.365,0,0,0,3.523,48.018a1.521,1.521,0,0,0,2.181.559h0a1.5,1.5,0,0,0,.5-1.846A30.341,30.341,0,0,1,29.36,3a1.5,1.5,0,0,0,1.286-1.454h0A1.472,1.472,0,0,0,28.969.09,33.237,33.237,0,0,0,0,33.086Z" transform="translate(0 -0.023)" fill="url(#linear-gradient)"/>
            <path id="XMLID_16_" d="M64.3,1.5h0a1.455,1.455,0,0,0,1.286,1.454,30.327,30.327,0,0,1,26.4,30.087A30.758,30.758,0,0,1,88.8,46.632a1.417,1.417,0,0,0,.5,1.846h0a1.481,1.481,0,0,0,2.181-.559A33.3,33.3,0,0,0,66.034-.009,1.533,1.533,0,0,0,64.3,1.5Z" transform="translate(-29.003 0.02)" fill="url(#linear-gradient)"/>
            <path id="XMLID_15_" d="M39.333,104.9A29.656,29.656,0,0,1,16.924,94.662a1.435,1.435,0,0,0-1.932-.224h0a1.5,1.5,0,0,0-.276,2.181A32.581,32.581,0,0,0,64,96.563a1.5,1.5,0,0,0-.276-2.181h0a1.435,1.435,0,0,0-1.932.224A29.719,29.719,0,0,1,39.333,104.9Z" transform="translate(-6.332 -41.86)" fill="#15d4d8"/>
          </g>
        </g>
      </g>
    </g>
    <g id="penis" transform="translate(392.574 162.052)">
      <path id="Caminho_10295" data-name="Caminho 10295" d="M186.885,128.632a12.887,12.887,0,0,1-4.547-4.225v4.527A3.318,3.318,0,0,1,181,131.6a3.318,3.318,0,0,1,1.34,2.664v1.081a8.421,8.421,0,0,1-5.347,7.829,8.831,8.831,0,1,0,9.894-14.539Z" transform="translate(-156.124 -109.668)" fill="url(#linear-gradient-3)"/>
      <path id="Caminho_10296" data-name="Caminho 10296" d="M10.261,133.539v-1.081a3.318,3.318,0,0,1,1.34-2.664,3.318,3.318,0,0,1-1.34-2.663v-4.769a12.886,12.886,0,0,1-4.753,4.422,8.83,8.83,0,1,0,9.9,14.506A8.421,8.421,0,0,1,10.261,133.539Z" transform="translate(-0.864 -107.865)" fill="url(#linear-gradient-3)"/>
      <path id="Caminho_10297" data-name="Caminho 10297" d="M96.722,20.81H106.9a1.544,1.544,0,0,0,1.544-1.544V6.632a6.632,6.632,0,1,0-13.263,0V19.266A1.544,1.544,0,0,0,96.722,20.81ZM97.083,8.9a.889.889,0,1,1,1.777,0v6.245a.889.889,0,1,1-1.777,0Zm.888,8.194a.889.889,0,1,1-.889.889A.889.889,0,0,1,97.972,17.1Z" transform="translate(-84.004)" fill="url(#linear-gradient-3)"/>
      <path id="Caminho_10298" data-name="Caminho 10298" d="M108.44,197.171V196.09a1.544,1.544,0,0,0-1.544-1.544H96.721a1.544,1.544,0,0,0-1.544,1.544v1.081a6.632,6.632,0,0,0,5.743,6.571v-4.567a.889.889,0,1,1,1.777,0v4.567A6.632,6.632,0,0,0,108.44,197.171Z" transform="translate(-84.003 -171.497)" fill="url(#linear-gradient-3)"/>
    </g>
  </g>
</svg>
