<svg xmlns="http://www.w3.org/2000/svg" xmlns:xlink="http://www.w3.org/1999/xlink" width="66" height="66" viewBox="0 0 66 66">
  <defs>
    <linearGradient id="linear-gradient" x1="-0.128" y1="-0.014" x2="-0.068" y2="1.02" gradientUnits="objectBoundingBox">
      <stop offset="0" stop-color="#4a54df"/>
      <stop offset="1" stop-color="#15d4d8"/>
    </linearGradient>
    <linearGradient id="linear-gradient-3" x1="0.5" y1="0" x2="0.5" y2="1" xlink:href="#linear-gradient"/>
  </defs>
  <g id="GENITALS-female" transform="translate(-377 -147)">
    <g id="MENSTRUATION" transform="translate(299 -211)">
      <g id="Grupo_450" data-name="Grupo 450" transform="translate(78 358)">
        <g id="Grupo_301" data-name="Grupo 301" transform="translate(0)">
          <g id="Grupo_299" data-name="Grupo 299">
            <path id="XMLID_17_" d="M0,33.086A33.365,33.365,0,0,0,3.523,48.018a1.521,1.521,0,0,0,2.181.559h0a1.5,1.5,0,0,0,.5-1.846A30.341,30.341,0,0,1,29.36,3a1.5,1.5,0,0,0,1.286-1.454h0A1.472,1.472,0,0,0,28.969.09,33.237,33.237,0,0,0,0,33.086Z" transform="translate(0 -0.023)" fill="url(#linear-gradient)"/>
            <path id="XMLID_16_" d="M64.3,1.5h0a1.455,1.455,0,0,0,1.286,1.454,30.327,30.327,0,0,1,26.4,30.087A30.758,30.758,0,0,1,88.8,46.632a1.417,1.417,0,0,0,.5,1.846h0a1.481,1.481,0,0,0,2.181-.559A33.3,33.3,0,0,0,66.034-.009,1.533,1.533,0,0,0,64.3,1.5Z" transform="translate(-29.003 0.02)" fill="url(#linear-gradient)"/>
            <path id="XMLID_15_" d="M39.333,104.9A29.656,29.656,0,0,1,16.924,94.662a1.435,1.435,0,0,0-1.932-.224h0a1.5,1.5,0,0,0-.276,2.181A32.581,32.581,0,0,0,64,96.563a1.5,1.5,0,0,0-.276-2.181h0a1.435,1.435,0,0,0-1.932.224A29.719,29.719,0,0,1,39.333,104.9Z" transform="translate(-6.332 -41.86)" fill="#15d4d8"/>
          </g>
        </g>
      </g>
    </g>
    <g id="vagina" transform="translate(395.704 162.312)">
      <path id="Caminho_10304" data-name="Caminho 10304" d="M26.3,17.327c0-6.32,3.952-12,7.266-15.658A1,1,0,0,0,32.087.328c-3.551,3.915-7.784,10.043-7.784,17,0,7.054,4.34,13.255,7.981,17.215a1,1,0,1,0,1.47-1.352C30.354,29.492,26.3,23.738,26.3,17.327Z" transform="translate(-24.303 0)" fill="url(#linear-gradient-3)"/>
      <path id="Caminho_10305" data-name="Caminho 10305" d="M166.535.328a1,1,0,0,0-1.479,1.342c3.315,3.655,7.267,9.338,7.267,15.658,0,6.411-4.054,12.165-7.454,15.863a1,1,0,1,0,1.47,1.352c3.641-3.96,7.981-10.161,7.981-17.215C174.32,10.371,170.086,4.243,166.535.328Z" transform="translate(-145.926 0)" fill="url(#linear-gradient-3)"/>
      <path id="Caminho_10306" data-name="Caminho 10306" d="M76.519,23.646a.3.3,0,0,0-.386,0c-1.254,1.021-8.195,7-8.195,14.225s6.941,13.2,8.195,14.225a.3.3,0,0,0,.386,0c1.254-1.021,8.195-7,8.195-14.225S77.773,24.668,76.519,23.646ZM75.137,47.458a1,1,0,0,1-1.406-.128,20,20,0,0,1-3.049-5,1,1,0,0,1,1.861-.726,18.318,18.318,0,0,0,2.724,4.449A1,1,0,0,1,75.137,47.458ZM76.35,49.7a1,1,0,1,1,1-1A1,1,0,0,1,76.35,49.7Zm4.272-11.715a16.067,16.067,0,0,0-4.091-5.811.3.3,0,0,0-.409,0,16.064,16.064,0,0,0-4.091,5.811.3.3,0,0,1-.587-.1v-.016c0-4.392,3.753-8.055,4.678-8.891a.3.3,0,0,1,.409,0c.925.836,4.678,4.5,4.678,8.891v.016A.3.3,0,0,1,80.622,37.985Z" transform="translate(-62.13 -20.439)" fill="url(#linear-gradient-3)"/>
    </g>
  </g>
</svg>
