<svg xmlns="http://www.w3.org/2000/svg" xmlns:xlink="http://www.w3.org/1999/xlink" width="66" height="66" viewBox="0 0 66 66">
  <defs>
    <linearGradient id="linear-gradient" x1="-0.128" y1="-0.014" x2="-0.068" y2="1.02" gradientUnits="objectBoundingBox">
      <stop offset="0" stop-color="#4a54df"/>
      <stop offset="1" stop-color="#15d4d8"/>
    </linearGradient>
    <linearGradient id="linear-gradient-3" x1="0.5" y1="0" x2="0.5" y2="1" xlink:href="#linear-gradient"/>
  </defs>
  <g id="GUMS_AND_TEETH" data-name="GUMS AND TEETH" transform="translate(-1169 -195)">
    <g id="Grupo_10328" data-name="Grupo 10328">
      <g id="Grupo_10087" data-name="Grupo 10087" transform="translate(1169 195)">
        <g id="Grupo_301" data-name="Grupo 301" transform="translate(0 0)">
          <g id="Grupo_299" data-name="Grupo 299" transform="translate(0 0)">
            <path id="XMLID_17_" d="M0,33.086A33.365,33.365,0,0,0,3.523,48.018a1.521,1.521,0,0,0,2.181.559h0a1.5,1.5,0,0,0,.5-1.846A30.341,30.341,0,0,1,29.36,3a1.5,1.5,0,0,0,1.286-1.454h0A1.472,1.472,0,0,0,28.969.09,33.237,33.237,0,0,0,0,33.086Z" transform="translate(0 -0.023)" fill="url(#linear-gradient)"/>
            <path id="XMLID_16_" d="M64.3,1.5h0a1.455,1.455,0,0,0,1.286,1.454,30.327,30.327,0,0,1,26.4,30.087A30.758,30.758,0,0,1,88.8,46.632a1.417,1.417,0,0,0,.5,1.846h0a1.481,1.481,0,0,0,2.181-.559A33.3,33.3,0,0,0,66.034-.009,1.533,1.533,0,0,0,64.3,1.5Z" transform="translate(-29.003 0.02)" fill="url(#linear-gradient)"/>
            <path id="XMLID_15_" d="M39.333,104.9A29.656,29.656,0,0,1,16.924,94.662a1.435,1.435,0,0,0-1.932-.224h0a1.5,1.5,0,0,0-.276,2.181A32.581,32.581,0,0,0,64,96.563a1.5,1.5,0,0,0-.276-2.181h0a1.435,1.435,0,0,0-1.932.224A29.719,29.719,0,0,1,39.333,104.9Z" transform="translate(-6.332 -41.86)" fill="#15d4d8"/>
          </g>
        </g>
      </g>
    </g>
    <path id="tooth" d="M32.577,0c-2.9,0-4.429,1.324-7.943,1.324S19.595,0,16.691,0C9.41,0,8.748,6.521,8.748,14.562s7.175,19.857,11.914,19.857c2.648,0,.656-5.166.656-7.592,0-2.648.888-3.971,3.315-3.971s3.315,1.324,3.315,3.971c0,2.427-1.991,7.592.656,7.592,4.739,0,11.914-11.815,11.914-19.857S39.858,0,32.577,0ZM12.239,16.527a1.135,1.135,0,1,1,1.135-1.135A1.135,1.135,0,0,1,12.239,16.527ZM14.5,5.708a22.11,22.11,0,0,0-1.248,6.465,1.135,1.135,0,0,1-1.132,1.069l-.067,0a1.135,1.135,0,0,1-1.067-1.2,23.851,23.851,0,0,1,1.418-7.2,1.135,1.135,0,0,1,2.1.871Z" transform="translate(1177.194 212.274)" fill="url(#linear-gradient-3)"/>
  </g>
</svg>
