<svg xmlns="http://www.w3.org/2000/svg" xmlns:xlink="http://www.w3.org/1999/xlink" width="66" height="66" viewBox="0 0 66 66">
    <defs>
        <linearGradient id="prefix__linear-gradient" x1="-.128" x2="-.068" y1="-.014" y2="1.02" gradientUnits="objectBoundingBox">
            <stop offset="0" stop-color="#4a54df"/>
            <stop offset="1" stop-color="#15d4d8"/>
        </linearGradient>
        <linearGradient id="prefix__linear-gradient-3" x1=".305" x2=".831" y1=".887" y2=".214" xlink:href="#prefix__linear-gradient"/>
        <style>
            .prefix__cls-1{fill:url(#prefix__linear-gradient)}
        </style>
    </defs>
    <g id="prefix__HEAD_FOREHEAD" data-name="HEAD / FOREHEAD" transform="translate(-494 -427)">
        <g id="prefix__Grupo_10094" data-name="Grupo 10094" transform="translate(494 427)">
            <g id="prefix__Grupo_450" data-name="Grupo 450">
                <g id="prefix__Grupo_301" data-name="Grupo 301">
                    <g id="prefix__Grupo_299" data-name="Grupo 299">
                        <path id="prefix__XMLID_17_" d="M0 33.086a33.365 33.365 0 0 0 3.523 14.932 1.521 1.521 0 0 0 2.181.559 1.5 1.5 0 0 0 .5-1.846A30.341 30.341 0 0 1 29.36 3a1.5 1.5 0 0 0 1.286-1.454A1.472 1.472 0 0 0 28.969.09 33.237 33.237 0 0 0 0 33.086z" class="prefix__cls-1" transform="translate(0 -.023)"/>
                        <path id="prefix__XMLID_16_" d="M64.3 1.5a1.455 1.455 0 0 0 1.286 1.454 30.327 30.327 0 0 1 26.4 30.087A30.758 30.758 0 0 1 88.8 46.632a1.417 1.417 0 0 0 .5 1.846 1.481 1.481 0 0 0 2.181-.559A33.3 33.3 0 0 0 66.034-.009 1.533 1.533 0 0 0 64.3 1.5z" class="prefix__cls-1" transform="translate(-29.003 .02)"/>
                        <path id="prefix__XMLID_15_" fill="#15d4d8" d="M39.333 104.9a29.656 29.656 0 0 1-22.409-10.238 1.435 1.435 0 0 0-1.932-.224 1.5 1.5 0 0 0-.276 2.181A32.581 32.581 0 0 0 64 96.563a1.5 1.5 0 0 0-.276-2.181 1.435 1.435 0 0 0-1.932.224A29.719 29.719 0 0 1 39.333 104.9z" transform="translate(-6.332 -41.86)"/>
                    </g>
                </g>
            </g>
        </g>
        <path id="prefix__Caminho_3884" fill="url(#prefix__linear-gradient-3)" d="M418.55 139.545a16.865 16.865 0 0 1 16.851 16.78v2.775l3.417 6.52c.863 1.645.045 2.994-1.807 2.994H435.4v6.2a3.537 3.537 0 0 1-3.525 3.525l-4.838-.719-.009 4.838v.036a.967.967 0 0 1-1.2.917l-17.427-3.084a1.5 1.5 0 0 1-1.2-1.421v-10.244a16.764 16.764 0 0 1 11.339-29.117z" data-name="Caminho 3884" transform="translate(106.611 298.622)"/>
        <path id="prefix__Interseção_6" fill="none" stroke="#fff" stroke-dasharray="3" stroke-miterlimit="10" d="M21544.449 10947.5c.645-8.032 6.988-14.337 14.713-14.337a13.938 13.938 0 0 1 6.3 1.5 15.63 15.63 0 0 1 8.482 12.838z" data-name="Interseção 6" transform="translate(-21034 -10493)"/>
    </g>
</svg>
