<svg xmlns="http://www.w3.org/2000/svg" xmlns:xlink="http://www.w3.org/1999/xlink" width="66" height="66" viewBox="0 0 66 66">
  <defs>
    <linearGradient id="linear-gradient" x1="-0.128" y1="-0.014" x2="-0.068" y2="1.02" gradientUnits="objectBoundingBox">
      <stop offset="0" stop-color="#4a54df"/>
      <stop offset="1" stop-color="#15d4d8"/>
    </linearGradient>
    <linearGradient id="linear-gradient-3" x1="0.5" y1="0" x2="0.5" y2="1" xlink:href="#linear-gradient"/>
  </defs>
  <g id="HAND" transform="translate(-713 -147)">
    <g id="HIPS" transform="translate(336)">
      <g id="MENSTRUATION" transform="translate(299 -211)">
        <g id="Grupo_450" data-name="Grupo 450" transform="translate(78 358)">
          <g id="Grupo_301" data-name="Grupo 301" transform="translate(0)">
            <g id="Grupo_299" data-name="Grupo 299">
              <path id="XMLID_17_" d="M0,33.086A33.365,33.365,0,0,0,3.523,48.018a1.521,1.521,0,0,0,2.181.559h0a1.5,1.5,0,0,0,.5-1.846A30.341,30.341,0,0,1,29.36,3a1.5,1.5,0,0,0,1.286-1.454h0A1.472,1.472,0,0,0,28.969.09,33.237,33.237,0,0,0,0,33.086Z" transform="translate(0 -0.023)" fill="url(#linear-gradient)"/>
              <path id="XMLID_16_" d="M64.3,1.5h0a1.455,1.455,0,0,0,1.286,1.454,30.327,30.327,0,0,1,26.4,30.087A30.758,30.758,0,0,1,88.8,46.632a1.417,1.417,0,0,0,.5,1.846h0a1.481,1.481,0,0,0,2.181-.559A33.3,33.3,0,0,0,66.034-.009,1.533,1.533,0,0,0,64.3,1.5Z" transform="translate(-29.003 0.02)" fill="url(#linear-gradient)"/>
              <path id="XMLID_15_" d="M39.333,104.9A29.656,29.656,0,0,1,16.924,94.662a1.435,1.435,0,0,0-1.932-.224h0a1.5,1.5,0,0,0-.276,2.181A32.581,32.581,0,0,0,64,96.563a1.5,1.5,0,0,0-.276-2.181h0a1.435,1.435,0,0,0-1.932.224A29.719,29.719,0,0,1,39.333,104.9Z" transform="translate(-6.332 -41.86)" fill="#15d4d8"/>
            </g>
          </g>
        </g>
      </g>
    </g>
    <path id="human-hand" d="M57.3,7.895a2.4,2.4,0,0,0-2.833,1.872l-1.139,5.577a.422.422,0,0,1-.415.347.406.406,0,0,1-.392-.44L53.38,5.133a2.688,2.688,0,0,0-2.27-2.914,2.639,2.639,0,0,0-2.982,2.391l-.737,8.656a.443.443,0,0,1-.4.413.426.426,0,0,1-.454-.425V2.714A2.688,2.688,0,0,0,44.027,0a2.639,2.639,0,0,0-2.767,2.636V13.068a.367.367,0,0,1-.272.362.353.353,0,0,1-.432-.3l-1-8.482a2.639,2.639,0,1,0-5.241.618l2.057,17.458a.554.554,0,0,1-.208.515.529.529,0,0,1-.694-.059l-4.36-4.529a2.688,2.688,0,0,0-3.689-.211,2.639,2.639,0,0,0-.165,3.817s4.622,4.668,8.22,8.276a7.452,7.452,0,0,1,2.14,4.512,5.161,5.161,0,0,0,5.135,4.643H49.3a5.161,5.161,0,0,0,5.067-4.179l4.8-24.78A2.4,2.4,0,0,0,57.3,7.895ZM53.616,29.679l-.607,3.952a6.507,6.507,0,0,1-1.339,3.338.988.988,0,1,1-1.56-1.214,4.532,4.532,0,0,0,.935-2.345l.007-.054.611-3.978a.988.988,0,0,1,1.954.3ZM53.2,27.524a.988.988,0,1,1,.988-.988A.988.988,0,0,1,53.2,27.524Z" transform="translate(700.701 160.308)" fill="url(#linear-gradient-3)"/>
  </g>
</svg>
