<svg xmlns="http://www.w3.org/2000/svg" xmlns:xlink="http://www.w3.org/1999/xlink" width="66" height="66" viewBox="0 0 66 66">
  <defs>
    <linearGradient id="linear-gradient" x1="-0.128" y1="-0.014" x2="-0.068" y2="1.02" gradientUnits="objectBoundingBox">
      <stop offset="0" stop-color="#4a54df"/>
      <stop offset="1" stop-color="#15d4d8"/>
    </linearGradient>
    <linearGradient id="linear-gradient-3" x1="0.5" y1="0" x2="0.5" y2="1" xlink:href="#linear-gradient"/>
  </defs>
  <g id="HAND_SKIN" data-name="HAND SKIN" transform="translate(-713 -147)">
    <g id="HIPS" transform="translate(336)">
      <g id="MENSTRUATION" transform="translate(299 -211)">
        <g id="Grupo_450" data-name="Grupo 450" transform="translate(78 358)">
          <g id="Grupo_301" data-name="Grupo 301" transform="translate(0)">
            <g id="Grupo_299" data-name="Grupo 299">
              <path id="XMLID_17_" d="M0,33.086A33.365,33.365,0,0,0,3.523,48.018a1.521,1.521,0,0,0,2.181.559h0a1.5,1.5,0,0,0,.5-1.846A30.341,30.341,0,0,1,29.36,3a1.5,1.5,0,0,0,1.286-1.454h0A1.472,1.472,0,0,0,28.969.09,33.237,33.237,0,0,0,0,33.086Z" transform="translate(0 -0.023)" fill="url(#linear-gradient)"/>
              <path id="XMLID_16_" d="M64.3,1.5h0a1.455,1.455,0,0,0,1.286,1.454,30.327,30.327,0,0,1,26.4,30.087A30.758,30.758,0,0,1,88.8,46.632a1.417,1.417,0,0,0,.5,1.846h0a1.481,1.481,0,0,0,2.181-.559A33.3,33.3,0,0,0,66.034-.009,1.533,1.533,0,0,0,64.3,1.5Z" transform="translate(-29.003 0.02)" fill="url(#linear-gradient)"/>
              <path id="XMLID_15_" d="M39.333,104.9A29.656,29.656,0,0,1,16.924,94.662a1.435,1.435,0,0,0-1.932-.224h0a1.5,1.5,0,0,0-.276,2.181A32.581,32.581,0,0,0,64,96.563a1.5,1.5,0,0,0-.276-2.181h0a1.435,1.435,0,0,0-1.932.224A29.719,29.719,0,0,1,39.333,104.9Z" transform="translate(-6.332 -41.86)" fill="#15d4d8"/>
            </g>
          </g>
        </g>
      </g>
    </g>
    <path id="Subtração_116" data-name="Subtração 116" d="M7977.78-9248.313h-6.548a5.153,5.153,0,0,1-3.46-1.333,5.159,5.159,0,0,1-1.675-3.311,7.47,7.47,0,0,0-2.138-4.513c-3.54-3.547-8.178-8.23-8.221-8.274a2.618,2.618,0,0,1-.735-1.943,2.613,2.613,0,0,1,.9-1.875,2.586,2.586,0,0,1,1.706-.635,2.76,2.76,0,0,1,1.981.847l4.361,4.529a.531.531,0,0,0,.38.161.528.528,0,0,0,.313-.1.552.552,0,0,0,.209-.516l-2.058-17.459a2.621,2.621,0,0,1,.549-1.942,2.621,2.621,0,0,1,1.763-.985,2.547,2.547,0,0,1,.315-.019,2.638,2.638,0,0,1,2.614,2.328l1,8.482a.355.355,0,0,0,.351.313.381.381,0,0,0,.083-.01.365.365,0,0,0,.27-.361v-10.432a2.64,2.64,0,0,1,2.638-2.637l.129,0a2.582,2.582,0,0,1,1.788.847,2.754,2.754,0,0,1,.723,1.862v10.54a.427.427,0,0,0,.425.428h.029a.443.443,0,0,0,.4-.412l.736-8.657a2.637,2.637,0,0,1,.848-1.723,2.629,2.629,0,0,1,1.775-.691,2.7,2.7,0,0,1,.358.024,2.58,2.58,0,0,1,1.708.994,2.751,2.751,0,0,1,.562,1.917l-.86,10.119a.4.4,0,0,0,.1.3.4.4,0,0,0,.292.139h.009a.423.423,0,0,0,.406-.348l1.138-5.578a2.411,2.411,0,0,1,2.354-1.92,2.432,2.432,0,0,1,.481.049,2.4,2.4,0,0,1,1.872,2.832l-2.269,11.708h-5.2a1.118,1.118,0,0,0-1.117,1.117v7.7a1.118,1.118,0,0,0,1.117,1.116h3.276l-.607,3.135A5.171,5.171,0,0,1,7977.78-9248.313Z" transform="translate(-7234.778 9446.309)" fill="url(#linear-gradient-3)"/>
    <g id="hair" transform="translate(745.268 173.746)">
      <path id="Caminho_6729" data-name="Caminho 6729" d="M19.074,144.491h-5.63a8,8,0,0,1,.338,2.978,3.911,3.911,0,0,1-3.891,3.492,3.967,3.967,0,0,1-.43-.023,3.722,3.722,0,0,1-2.573-1.457,4.6,4.6,0,0,1-.9-2.745,10.416,10.416,0,0,1,.268-2.244H.94a.94.94,0,0,0-.94.94v6.492a.94.94,0,0,0,.94.94H19.074a.94.94,0,0,0,.94-.94v-6.492A.94.94,0,0,0,19.074,144.491Z" transform="translate(0 -136.724)" fill="url(#linear-gradient-3)"/>
      <path id="Caminho_6730" data-name="Caminho 6730" d="M106.714,42.055a2.944,2.944,0,0,0,.32.018,2.911,2.911,0,0,0,2.889-2.594c.335-3.058-2.567-5.74.106-9.934a.456.456,0,0,0-.668-.6,13.515,13.515,0,0,0-5.224,9.9A3.047,3.047,0,0,0,106.714,42.055Zm-.186-1.42a.5.5,0,1,1-.5-.5A.5.5,0,0,1,106.528,40.635Zm-1.493-3.708a.5.5,0,0,1,.971.268,4.883,4.883,0,0,0-.077,2.147.494.494,0,0,1-.315.579l-.009,0a.5.5,0,0,1-.654-.347A5.981,5.981,0,0,1,105.035,36.928Z" transform="translate(-97.143 -28.843)" fill="url(#linear-gradient-3)"/>
    </g>
  </g>
</svg>
