<svg xmlns="http://www.w3.org/2000/svg" xmlns:xlink="http://www.w3.org/1999/xlink" width="66" height="66" viewBox="0 0 66 66">
  <defs>
    <linearGradient id="linear-gradient" x1="-0.128" y1="-0.014" x2="-0.068" y2="1.02" gradientUnits="objectBoundingBox">
      <stop offset="0" stop-color="#4a54df"/>
      <stop offset="1" stop-color="#15d4d8"/>
    </linearGradient>
    <linearGradient id="linear-gradient-3" x1="0.5" y1="0" x2="0.5" y2="1" xlink:href="#linear-gradient"/>
  </defs>
  <g id="LIVER_DETOX" data-name="LIVER / DETOX" transform="translate(-479 -429)">
    <g id="Grupo_10322" data-name="Grupo 10322" transform="translate(479 429)">
      <g id="Grupo_301" data-name="Grupo 301">
        <g id="Grupo_299" data-name="Grupo 299">
          <path id="XMLID_17_" d="M0,33.086A33.365,33.365,0,0,0,3.523,48.018a1.521,1.521,0,0,0,2.181.559h0a1.5,1.5,0,0,0,.5-1.846A30.341,30.341,0,0,1,29.36,3a1.5,1.5,0,0,0,1.286-1.454h0A1.472,1.472,0,0,0,28.969.09,33.237,33.237,0,0,0,0,33.086Z" transform="translate(0 -0.023)" fill="url(#linear-gradient)"/>
          <path id="XMLID_16_" d="M64.3,1.5h0a1.455,1.455,0,0,0,1.286,1.454,30.327,30.327,0,0,1,26.4,30.087A30.758,30.758,0,0,1,88.8,46.632a1.417,1.417,0,0,0,.5,1.846h0a1.481,1.481,0,0,0,2.181-.559A33.3,33.3,0,0,0,66.034-.009,1.533,1.533,0,0,0,64.3,1.5Z" transform="translate(-29.003 0.02)" fill="url(#linear-gradient)"/>
          <path id="XMLID_15_" d="M39.333,104.9A29.656,29.656,0,0,1,16.924,94.662a1.435,1.435,0,0,0-1.932-.224h0a1.5,1.5,0,0,0-.276,2.181A32.581,32.581,0,0,0,64,96.563a1.5,1.5,0,0,0-.276-2.181h0a1.435,1.435,0,0,0-1.932.224A29.719,29.719,0,0,1,39.333,104.9Z" transform="translate(-6.332 -41.86)" fill="#15d4d8"/>
        </g>
      </g>
    </g>
    <g id="Grupo_10323" data-name="Grupo 10323" transform="translate(-1.982 18.736)">
      <path id="Caminho_10281" data-name="Caminho 10281" d="M170.441,25.5c-.629-1.206-4.688-2.253-10.7-2.1a1.835,1.835,0,0,0-1.681,2.455l2.468,6.867a1.835,1.835,0,0,0,2.741.908C168.111,30.418,171.371,27.283,170.441,25.5Z" transform="translate(359.639 409.616)" fill="url(#linear-gradient-3)"/>
      <path id="Caminho_10282" data-name="Caminho 10282" d="M17.61,38.668a5.443,5.443,0,0,0-6.82-3.332,21.31,21.31,0,0,0-5.267,2.383c-6.991,5.368-7.116,19.423-1.669,22.22,2.917,1.5,7.893-6.028,14.335-11.235.279-.225.576-.454.889-.684a2.5,2.5,0,0,0,.867-2.855ZM3.152,51.763a.936.936,0,1,1,.936-.936A.936.936,0,0,1,3.152,51.763ZM7.669,41.33a11.723,11.723,0,0,0-3.34,6.483.936.936,0,0,1-.926.8.954.954,0,0,1-.134-.009.936.936,0,0,1-.794-1.059,13.429,13.429,0,0,1,3.952-7.618.936.936,0,0,1,1.242,1.4Z" transform="translate(497.873 399.394)" fill="url(#linear-gradient-3)"/>
    </g>
  </g>
</svg>
