<svg id="Grupo_10238" data-name="Grupo 10238" xmlns="http://www.w3.org/2000/svg" xmlns:xlink="http://www.w3.org/1999/xlink" width="66" height="66" viewBox="0 0 66 66">
  <defs>
    <style>
      .cls-1 {
        fill: url(#linear-gradient);
      }

      .cls-2 {
        fill: url(#linear-gradient-3);
      }
    </style>
    <linearGradient id="linear-gradient" x1="-0.128" y1="-0.014" x2="-0.068" y2="1.02" gradientUnits="objectBoundingBox">
      <stop offset="0" stop-color="#4a54df"/>
      <stop offset="1" stop-color="#15d4d8"/>
    </linearGradient>
    <linearGradient id="linear-gradient-3" x1="0.5" y1="0" x2="0.5" y2="1" xlink:href="#linear-gradient"/>
  </defs>
  <g id="Grupo_10235" data-name="Grupo 10235" transform="translate(0 0)">
    <g id="Grupo_301" data-name="Grupo 301" transform="translate(0 0)">
      <g id="Grupo_299" data-name="Grupo 299" transform="translate(0)">
        <path id="XMLID_17_" class="cls-1" d="M0,33.086A33.365,33.365,0,0,0,3.523,48.018a1.521,1.521,0,0,0,2.181.559h0a1.5,1.5,0,0,0,.5-1.846A30.341,30.341,0,0,1,29.36,3a1.5,1.5,0,0,0,1.286-1.454h0A1.472,1.472,0,0,0,28.969.09,33.237,33.237,0,0,0,0,33.086Z" transform="translate(0 -0.023)"/>
        <path id="XMLID_16_" class="cls-1" d="M64.3,1.5h0a1.455,1.455,0,0,0,1.286,1.454,30.327,30.327,0,0,1,26.4,30.087A30.758,30.758,0,0,1,88.8,46.632a1.417,1.417,0,0,0,.5,1.846h0a1.481,1.481,0,0,0,2.181-.559A33.3,33.3,0,0,0,66.034-.009,1.533,1.533,0,0,0,64.3,1.5Z" transform="translate(-29.003 0.02)"/>
        <path id="XMLID_15_" class="cls-2" d="M39.333,104.9A29.656,29.656,0,0,1,16.924,94.662a1.435,1.435,0,0,0-1.932-.224h0a1.5,1.5,0,0,0-.276,2.181A32.581,32.581,0,0,0,64,96.563a1.5,1.5,0,0,0-.276-2.181h0a1.435,1.435,0,0,0-1.932.224A29.719,29.719,0,0,1,39.333,104.9Z" transform="translate(-6.332 -41.86)"/>
      </g>
    </g>
  </g>
  <path id="lungs" class="cls-2" d="M25.23,37.31c-1.445,0-2.356,1.34-2.923,3.288l-.879-1.025V31.015c0-.7-1.127-1.259-2.518-1.259s-2.518.563-2.518,1.259v8.557L15.513,40.6c-.566-1.948-1.477-3.288-2.923-3.288C7.723,37.31,0,47.382,0,54.937c0,2.433,3.946,5.036,8.813,5.036s7.45-2.6,7.45-5.036a82.759,82.759,0,0,0-.149-11.17l2.8-3.262,2.8,3.262a82.759,82.759,0,0,0-.149,11.17c0,2.433,2.582,5.036,7.45,5.036s8.813-2.6,8.813-5.036C37.82,47.382,30.1,37.31,25.23,37.31ZM5.738,47.583a.958.958,0,1,1,1-.915A.958.958,0,0,1,5.738,47.583ZM11.7,41.416a8.735,8.735,0,0,0-3.491,3.37.958.958,0,0,1-1.62-1.024,10.369,10.369,0,0,1,4.4-4.126.958.958,0,0,1,.711,1.78Z" transform="translate(14.252 -13.532)"/>
</svg>
