<svg xmlns="http://www.w3.org/2000/svg" xmlns:xlink="http://www.w3.org/1999/xlink" width="66" height="66" viewBox="0 0 66 66">
  <defs>
    <linearGradient id="linear-gradient" x1="-0.128" y1="-0.014" x2="-0.068" y2="1.02" gradientUnits="objectBoundingBox">
      <stop offset="0" stop-color="#4a54df"/>
      <stop offset="1" stop-color="#15d4d8"/>
    </linearGradient>
    <linearGradient id="linear-gradient-3" x1="0.5" y1="0" x2="0.5" y2="1" xlink:href="#linear-gradient"/>
  </defs>
  <g id="MENSTRUATION" transform="translate(-78 -358)">
    <g id="Grupo_450" data-name="Grupo 450" transform="translate(78 358)">
      <g id="Grupo_301" data-name="Grupo 301" transform="translate(0)">
        <g id="Grupo_299" data-name="Grupo 299">
          <path id="XMLID_17_" d="M0,33.086A33.365,33.365,0,0,0,3.523,48.018a1.521,1.521,0,0,0,2.181.559h0a1.5,1.5,0,0,0,.5-1.846A30.341,30.341,0,0,1,29.36,3a1.5,1.5,0,0,0,1.286-1.454h0A1.472,1.472,0,0,0,28.969.09,33.237,33.237,0,0,0,0,33.086Z" transform="translate(0 -0.023)" fill="url(#linear-gradient)"/>
          <path id="XMLID_16_" d="M64.3,1.5h0a1.455,1.455,0,0,0,1.286,1.454,30.327,30.327,0,0,1,26.4,30.087A30.758,30.758,0,0,1,88.8,46.632a1.417,1.417,0,0,0,.5,1.846h0a1.481,1.481,0,0,0,2.181-.559A33.3,33.3,0,0,0,66.034-.009,1.533,1.533,0,0,0,64.3,1.5Z" transform="translate(-29.003 0.02)" fill="url(#linear-gradient)"/>
          <path id="XMLID_15_" d="M39.333,104.9A29.656,29.656,0,0,1,16.924,94.662a1.435,1.435,0,0,0-1.932-.224h0a1.5,1.5,0,0,0-.276,2.181A32.581,32.581,0,0,0,64,96.563a1.5,1.5,0,0,0-.276-2.181h0a1.435,1.435,0,0,0-1.932.224A29.719,29.719,0,0,1,39.333,104.9Z" transform="translate(-6.332 -41.86)" fill="#15d4d8"/>
        </g>
      </g>
    </g>
    <path id="uterus" d="M40.531,48.257a7.593,7.593,0,0,0-12.428-4.1l-.049.043c-1.759-1.519-4.554-2.157-7.7-2.157s-5.943.638-7.7,2.157l-.049-.043a7.593,7.593,0,0,0-12.428,4.1c-.492,2.278.094,3.612,1.55,6.419,0,0,.428.709.519.874.973,1.773,3.554,2.226,5.766,1.012,1.34-.735,2.746-3.041,3.646-4.743.018-.033.031-.068.046-.1a29.407,29.407,0,0,0,6.535,6.934V69.835a2.118,2.118,0,1,0,4.235,0V58.653A29.406,29.406,0,0,0,29,51.718c.015.034.028.068.046.1.9,1.7,2.306,4.008,3.647,4.744,2.212,1.214,4.794.76,5.766-1.012.091-.165.519-.874.519-.874C40.446,51.838,41.024,50.535,40.531,48.257ZM10.844,49.706a1.5,1.5,0,0,0-.4-.09c-1.919-.156-4.619-.208-5.96.527A5.475,5.475,0,0,0,2.843,51.51a5.027,5.027,0,0,1,8.064-5.427l.236.207a6.411,6.411,0,0,0-.431,2.4A4.306,4.306,0,0,0,10.844,49.706Zm8.521-4.2A6.9,6.9,0,0,0,14.9,46.858a.952.952,0,0,1-.664.269.964.964,0,0,1-.667-1.66,8.7,8.7,0,0,1,5.763-1.891h.017a.963.963,0,0,1,.016,1.925Zm2.872.238a.963.963,0,1,1,.963-.963A.963.963,0,0,1,22.236,45.74ZM37.86,51.51a5.477,5.477,0,0,0-1.641-1.366c-1.34-.735-4.04-.683-5.959-.527a1.5,1.5,0,0,0-.4.09,4.3,4.3,0,0,0,.131-1.017,6.411,6.411,0,0,0-.431-2.4l.236-.207A5.028,5.028,0,0,1,37.86,51.51Z" transform="translate(91 337.549)" fill="url(#linear-gradient-3)"/>
  </g>
</svg>
