<svg xmlns="http://www.w3.org/2000/svg" width="27.392" height="30.688" viewBox="0 0 27.392 30.688">
    <defs>
        <linearGradient id="hn8o35pmta" x1=".5" x2=".5" y2="1" gradientUnits="objectBoundingBox">
            <stop offset="0" stop-color="#4a54df"/>
            <stop offset="1" stop-color="#15d4d8"/>
        </linearGradient>
    </defs>
    <g>
        <path fill="url(#hn8o35pmta)" d="M26.731 30.686h-1.09a.548.548 0 0 1-.484-.292 10.718 10.718 0 0 1-1.287-5.122v-.066a16.724 16.724 0 0 0-1.124-6.749.548.548 0 0 0-.948-.169c-.1.121-2.343 3-1.206 8.132a6.255 6.255 0 0 1-.606 3.945.6.6 0 0 1-.5.318H7.917a.555.555 0 0 1-.5-.318 6.252 6.252 0 0 1-.608-3.95c1.142-5.127-1.1-8.008-1.2-8.131a.548.548 0 0 0-.429-.205.516.516 0 0 0-.1.009.548.548 0 0 0-.424.366 16.724 16.724 0 0 0-1.124 6.749v.062a11.946 11.946 0 0 1-1.284 5.119.543.543 0 0 1-.486.3H.671a.548.548 0 0 1-.548-.493 31.344 31.344 0 0 1 .116-6.555 56.8 56.8 0 0 0 .555-6.1 5.07 5.07 0 0 1 .7-2.356 2.453 2.453 0 0 0 .342-2.271 3.92 3.92 0 0 1 .009-2.986A5.32 5.32 0 0 1 5.348 7.1L6.4 6.749c3.975-1.315 4.8-1.589 4.8-4.007a6.306 6.306 0 0 0-.321-2.028A.544.544 0 0 1 11.4 0h1.748v2.74c0 2.844-1.711 3.52-5.583 4.778L5.7 8.133a4.346 4.346 0 0 0-2.822 2.158 2.915 2.915 0 0 0-.064 2.126 3.506 3.506 0 0 1-.353 3.278 3.991 3.991 0 0 0-.571 1.841 49.723 49.723 0 0 1-.438 5.32v.006l-.11.811c-.018.11-.023.175-.025.178a31.441 31.441 0 0 0-.217 3.438.548.548 0 0 0 .543.552.548.548 0 0 0 .548-.544 30.273 30.273 0 0 1 .21-3.315c0-.032.007-.055.007-.071v.007l.021-.134a.056.056 0 0 1 0-.023l.01-.073c.023-.164.055-.4.089-.688a50.919 50.919 0 0 0 .448-5.467 3.208 3.208 0 0 1 .475-1.39 4.5 4.5 0 0 0 .347-4.187 1.881 1.881 0 0 1 .075-1.229 3.343 3.343 0 0 1 2.169-1.554L7.91 8.56c2.261-.735 4.133-1.347 5.244-2.579V14.8c0 .958-.6 1.614-1.794 1.959a2.2 2.2 0 1 0 .118 1.093 4.506 4.506 0 0 0 1.676-.785v7.6a1.883 1.883 0 0 1-1.322 1.788 2.192 2.192 0 1 0 .213 1.09 3.007 3.007 0 0 0 2.206-2.878V23.1a4.117 4.117 0 0 0 1.11.6 2.192 2.192 0 1 0 .213-1.09 1.883 1.883 0 0 1-1.322-1.786v-7.6a4.506 4.506 0 0 0 1.676.785 2.185 2.185 0 1 0 .118-1.1c-1.191-.342-1.794-1-1.794-1.956V5.98c1.11 1.232 2.983 1.844 5.244 2.579l1.863.612a3.345 3.345 0 0 1 2.164 1.557 1.94 1.94 0 0 1 .089 1.2 4.551 4.551 0 0 0 .352 4.26 3.1 3.1 0 0 1 .458 1.35 50.726 50.726 0 0 0 .448 5.46c.033.292.067.531.09.695l.01.073v.015l.02.091c0 .022.007.093.009.115a30.274 30.274 0 0 1 .212 3.316.548.548 0 0 0 .548.544.548.548 0 0 0 .543-.553 30.383 30.383 0 0 0-.219-3.42 1.6 1.6 0 0 0-.023-.2l-.11-.81a49.85 49.85 0 0 1-.437-5.326 4.073 4.073 0 0 0-.59-1.877 3.481 3.481 0 0 1-.323-3.271 2.919 2.919 0 0 0-.076-2.1A4.343 4.343 0 0 0 21.7 8.132l-1.872-.614c-3.868-1.259-5.579-1.934-5.579-4.778V0H16a.544.544 0 0 1 .522.712A6.309 6.309 0 0 0 16.2 2.74c0 2.421.827 2.694 4.8 4.007l1.052.349a5.327 5.327 0 0 1 3.51 2.824 3.92 3.92 0 0 1 .009 2.986 2.453 2.453 0 0 0 .342 2.271 5.07 5.07 0 0 1 .7 2.356 56.77 56.77 0 0 0 .553 6.1 31.351 31.351 0 0 1 .116 6.556.548.548 0 0 1-.546.492zM10.413 17.535a1.1 1.1 0 1 1-1.1-1.1 1.1 1.1 0 0 1 1.1 1.1zm.548 9.863a1.1 1.1 0 1 1-1.1-1.1 1.1 1.1 0 0 1 1.1 1.102zm6.576-4.932a1.1 1.1 0 1 1-1.1 1.1 1.1 1.1 0 0 1 1.1-1.099zm-.548-8.766a1.1 1.1 0 1 1 1.1 1.1 1.1 1.1 0 0 1-1.1-1.1z" transform="translate(-19.304 -17.656) translate(19.3 17.656)"/>
    </g>
</svg>
