<?xml version="1.0" encoding="UTF-8" standalone="no"?>
<svg
   xmlns:dc="http://purl.org/dc/elements/1.1/"
   xmlns:cc="http://creativecommons.org/ns#"
   xmlns:rdf="http://www.w3.org/1999/02/22-rdf-syntax-ns#"
   xmlns:svg="http://www.w3.org/2000/svg"
   xmlns="http://www.w3.org/2000/svg"
   xmlns:xlink="http://www.w3.org/1999/xlink"
   xmlns:sodipodi="http://sodipodi.sourceforge.net/DTD/sodipodi-0.dtd"
   xmlns:inkscape="http://www.inkscape.org/namespaces/inkscape"
   width="35.410999"
   height="28.557705"
   viewBox="0 0 35.410999 28.557705"
   version="1.1"
   id="svg21"
   sodipodi:docname="SKIN.svg"
   inkscape:version="1.0.2 (e86c870879, 2021-01-15)">
  <metadata
     id="metadata25">
    <rdf:RDF>
      <cc:Work
         rdf:about="">
        <dc:format>image/svg+xml</dc:format>
        <dc:type
           rdf:resource="http://purl.org/dc/dcmitype/StillImage" />
        <dc:title />
      </cc:Work>
    </rdf:RDF>
  </metadata>
  <sodipodi:namedview
     pagecolor="#ffffff"
     bordercolor="#666666"
     borderopacity="1"
     objecttolerance="10"
     gridtolerance="10"
     guidetolerance="10"
     inkscape:pageopacity="0"
     inkscape:pageshadow="2"
     inkscape:window-width="1920"
     inkscape:window-height="1016"
     id="namedview23"
     showgrid="false"
     fit-margin-top="0"
     fit-margin-left="0"
     fit-margin-right="0"
     fit-margin-bottom="0"
     inkscape:zoom="13.060606"
     inkscape:cx="17.716"
     inkscape:cy="13.411059"
     inkscape:window-x="0"
     inkscape:window-y="27"
     inkscape:window-maximized="1"
     inkscape:current-layer="svg21"
     inkscape:document-rotation="0" />
  <defs
     id="defs8">
    <linearGradient
       id="linear-gradient"
       x1="-0.12800001"
       y1="-0.014"
       x2="-0.068000004"
       y2="1.02"
       gradientUnits="objectBoundingBox">
      <stop
         offset="0"
         stop-color="#4a54df"
         id="stop2" />
      <stop
         offset="1"
         stop-color="#15d4d8"
         id="stop4" />
    </linearGradient>
    <linearGradient
       id="linear-gradient-3"
       x1="162.96573"
       y1="19.364785"
       x2="162.96573"
       y2="35.080773"
       xlink:href="#linear-gradient"
       gradientTransform="scale(0.67140235,1.4894199)"
       gradientUnits="userSpaceOnUse" />
    <linearGradient
       inkscape:collect="always"
       xlink:href="#linear-gradient"
       id="linearGradient27"
       x1="11.452616"
       y1="223.37845"
       x2="11.452616"
       y2="246.28368"
       gradientTransform="scale(1.5459787,0.64683945)"
       gradientUnits="userSpaceOnUse" />
  </defs>
  <g
     id="SKIN"
     transform="translate(-1819.284,-211.5263)">
    <g
       id="Grupo_10094"
       data-name="Grupo 10094"
       transform="translate(1804,195)">
      <g
         id="Grupo_450"
         data-name="Grupo 450">
        <g
           id="Grupo_301"
           data-name="Grupo 301">
          <g
             id="Grupo_299"
             data-name="Grupo 299" />
        </g>
      </g>
    </g>
    <g
       id="hair"
       transform="translate(1819.284,211.527)">
      <path
         id="Caminho_6729"
         data-name="Caminho 6729"
         d="m 33.747,144.491 h -9.961 a 14.16,14.16 0 0 1 0.6,5.269 6.919,6.919 0 0 1 -6.884,6.178 7.016,7.016 0 0 1 -0.76,-0.042 6.585,6.585 0 0 1 -4.553,-2.579 8.137,8.137 0 0 1 -1.594,-4.857 18.429,18.429 0 0 1 0.474,-3.97 h -9.4 A 1.664,1.664 0 0 0 0,146.155 v 11.487 a 1.664,1.664 0 0 0 1.664,1.664 h 32.083 a 1.664,1.664 0 0 0 1.664,-1.664 v -11.487 a 1.664,1.664 0 0 0 -1.664,-1.664 z"
         transform="translate(0,-130.749)"
         fill="url(#linear-gradient-3)"
         style="fill:url(#linearGradient27)" />
      <path
         id="Caminho_6730"
         data-name="Caminho 6730"
         d="m 108.7,52.219 a 5.209,5.209 0 0 0 0.566,0.031 5.15,5.15 0 0 0 5.112,-4.59 c 0.592,-5.411 -4.542,-10.155 0.187,-17.577 a 0.807,0.807 0 0 0 -1.182,-1.066 c -7.627,6.041 -9.269,14.341 -9.243,17.524 0.021,2.844 1.729,5.369 4.56,5.678 z m -0.329,-2.512 a 0.891,0.891 0 1 1 -0.891,-0.891 0.891,0.891 0 0 1 0.888,0.891 z m -2.641,-6.56 a 0.89122795,0.89122795 0 0 1 1.718,0.475 8.64,8.64 0 0 0 -0.136,3.8 0.875,0.875 0 0 1 -0.558,1.024 l -0.017,0.006 a 0.88,0.88 0 0 1 -1.157,-0.614 10.582,10.582 0 0 1 0.146,-4.691 z"
         transform="translate(-91.763,-28.843)"
         fill="url(#linear-gradient-3)"
         style="fill:url(#linear-gradient-3)" />
    </g>
  </g>
</svg>
