<svg xmlns="http://www.w3.org/2000/svg" xmlns:xlink="http://www.w3.org/1999/xlink" width="66" height="66" viewBox="0 0 66 66">
  <defs>
    <linearGradient id="linear-gradient" x1="-0.128" y1="-0.014" x2="-0.068" y2="1.02" gradientUnits="objectBoundingBox">
      <stop offset="0" stop-color="#4a54df"/>
      <stop offset="1" stop-color="#15d4d8"/>
    </linearGradient>
    <linearGradient id="linear-gradient-3" x1="0.5" y1="0" x2="0.5" y2="1" xlink:href="#linear-gradient"/>
  </defs>
  <g id="Tongue" transform="translate(-1169 -195)">
    <g id="Grupo_10087" data-name="Grupo 10087" transform="translate(1169 195)">
      <g id="Grupo_301" data-name="Grupo 301" transform="translate(0 0)">
        <g id="Grupo_299" data-name="Grupo 299" transform="translate(0 0)">
          <path id="XMLID_17_" d="M0,33.086A33.365,33.365,0,0,0,3.523,48.018a1.521,1.521,0,0,0,2.181.559h0a1.5,1.5,0,0,0,.5-1.846A30.341,30.341,0,0,1,29.36,3a1.5,1.5,0,0,0,1.286-1.454h0A1.472,1.472,0,0,0,28.969.09,33.237,33.237,0,0,0,0,33.086Z" transform="translate(0 -0.023)" fill="url(#linear-gradient)"/>
          <path id="XMLID_16_" d="M64.3,1.5h0a1.455,1.455,0,0,0,1.286,1.454,30.327,30.327,0,0,1,26.4,30.087A30.758,30.758,0,0,1,88.8,46.632a1.417,1.417,0,0,0,.5,1.846h0a1.481,1.481,0,0,0,2.181-.559A33.3,33.3,0,0,0,66.034-.009,1.533,1.533,0,0,0,64.3,1.5Z" transform="translate(-29.003 0.02)" fill="url(#linear-gradient)"/>
          <path id="XMLID_15_" d="M39.333,104.9A29.656,29.656,0,0,1,16.924,94.662a1.435,1.435,0,0,0-1.932-.224h0a1.5,1.5,0,0,0-.276,2.181A32.581,32.581,0,0,0,64,96.563a1.5,1.5,0,0,0-.276-2.181h0a1.435,1.435,0,0,0-1.932.224A29.719,29.719,0,0,1,39.333,104.9Z" transform="translate(-6.332 -41.86)" fill="#15d4d8"/>
        </g>
      </g>
    </g>
    <g id="Grupo_10088" data-name="Grupo 10088" transform="translate(1182.563 212.956)">
      <path id="Caminho_529" data-name="Caminho 529" d="M22.063,135.144a3.7,3.7,0,0,1-5.228,0,3.832,3.832,0,0,0-3.2-1.083A124.209,124.209,0,0,0,0,136.643c2.453,2.624,10.231,10.077,19.449,10.077s17-7.453,19.449-10.077a124.454,124.454,0,0,0-13.637-2.581A3.831,3.831,0,0,0,22.063,135.144Z" transform="translate(0 -123.877)" fill="url(#linear-gradient-3)"/>
      <g id="Grupo_454" data-name="Grupo 454" transform="translate(0.38 0)">
        <path id="Caminho_530" data-name="Caminho 530" d="M20.93,64.675a1.225,1.225,0,0,0,1.734,0,6.318,6.318,0,0,1,5.271-1.785A128.46,128.46,0,0,1,40.867,65.28c-2.334-3.207-7.9-9.837-14.757-11.065a1.567,1.567,0,0,0-1.385.432L22.9,56.47a1.56,1.56,0,0,1-2.206,0l-1.823-1.823a1.567,1.567,0,0,0-1.385-.432C10.628,55.443,5.064,62.073,2.73,65.28a128.458,128.458,0,0,1,12.931-2.389A6.318,6.318,0,0,1,20.93,64.675ZM9.67,61.972a1.044,1.044,0,1,1,1.044-1.044A1.044,1.044,0,0,1,9.67,61.972Zm2.273-1.723a1.044,1.044,0,0,1-.618-1.887,16.734,16.734,0,0,1,5-2.659,1.044,1.044,0,0,1,.545,2.016,15.125,15.125,0,0,0-4.308,2.328A1.042,1.042,0,0,1,11.943,60.25Z" transform="translate(-2.73 -54.19)" fill="url(#linear-gradient-3)"/>
        <g id="Caminho_680" data-name="Caminho 680" transform="translate(10.215 6.786)" fill="url(#linear-gradient-3)">
          <path d="M 9.025001525878906 22.96599197387695 C 4.462151527404785 22.96599197387695 0.7500015497207642 19.64613342285156 0.7500015497207642 15.56547260284424 L 0.7500015497207642 4.135642528533936 C 0.7500015497207642 3.519672632217407 0.9599415063858032 3.291362762451172 1.11786150932312 3.173222780227661 C 1.369871497154236 2.984672784805298 1.79241156578064 2.885012626647949 2.339811563491821 2.885012626647949 C 4.803901672363281 2.885012626647949 8.651841163635254 4.787652492523193 8.690421104431152 4.806872844696045 L 9.025041580200195 4.973572731018066 L 9.35975170135498 4.806792736053467 C 9.398161888122559 4.787652492523193 13.24610137939453 2.885012626647949 15.71019172668457 2.885012626647949 C 16.25777244567871 2.885012626647949 16.68036079406738 2.984642744064331 16.93228149414062 3.173112630844116 C 17.09014129638672 3.291212797164917 17.30000114440918 3.519482612609863 17.30000114440918 4.135642528533936 L 17.30000114440918 15.56547260284424 C 17.30000114440918 19.64613342285156 13.58785152435303 22.96599197387695 9.025001525878906 22.96599197387695 Z" stroke="none"/>
          <path d="M 2.339811325073242 3.635013580322266 C 1.769062042236328 3.635013580322266 1.586132049560547 3.759542465209961 1.56715202331543 3.77374267578125 C 1.541191101074219 3.793172836303711 1.500001907348633 3.908592224121094 1.500001907348633 4.135643005371094 L 1.500001907348633 15.56547260284424 C 1.500001907348633 19.23258209228516 4.875701904296875 22.21599197387695 9.025001525878906 22.21599197387695 C 13.17430114746094 22.21599197387695 16.55000114440918 19.23258209228516 16.55000114440918 15.56547260284424 L 16.55000114440918 4.135643005371094 C 16.55000114440918 3.908412933349609 16.50888061523438 3.792972564697266 16.48296165466309 3.77357292175293 C 16.4640007019043 3.759391784667969 16.28121185302734 3.63496208190918 15.71033096313477 3.635013580322266 C 13.81409168243408 3.63519287109375 10.7243013381958 4.965673446655273 9.694431304931641 5.477972030639648 L 9.024961471557617 5.811853408813477 L 8.355501174926758 5.477943420410156 C 7.327781677246094 4.965343475341797 4.24364185333252 3.635013580322266 2.339811325073242 3.635013580322266 M 2.339816093444824 2.135015487670898 C 5.013890266418457 2.135015487670898 9.025001525878906 4.135643005371094 9.025001525878906 4.135643005371094 C 9.025001525878906 4.135643005371094 13.03611278533936 2.135259628295898 15.71018695831299 2.135015487670898 C 17.0474681854248 2.134893417358398 18.05000114440918 2.634988784790039 18.05000114440918 4.135643005371094 L 18.05000114440918 15.56547260284424 C 18.05000114440918 20.0668830871582 14.00937175750732 23.71599197387695 9.025001525878906 23.71599197387695 C 4.040631294250488 23.71599197387695 1.9073486328125e-06 20.0668830871582 1.9073486328125e-06 15.56547260284424 L 1.9073486328125e-06 4.135643005371094 C 1.9073486328125e-06 2.635263442993164 1.002901077270508 2.135015487670898 2.339816093444824 2.135015487670898 Z" stroke="none" fill="#fff"/>
        </g>
      </g>
      <path id="Caminho_681" data-name="Caminho 681" d="M8882,6085.936v7.971" transform="translate(-8862.38 -6070.459)" fill="none" stroke="#fff" stroke-linecap="round" stroke-width="1"/>
    </g>
  </g>
</svg>
