<svg xmlns="http://www.w3.org/2000/svg" width="66" height="66" viewBox="0 0 66 66">
  <g id="MOUTH" transform="translate(-1169 -195)">
    <g id="Grupo_10087" data-name="Grupo 10087" transform="translate(1169 195)">
      <g id="Grupo_301" data-name="Grupo 301" transform="translate(0 0)">
        <g id="Grupo_299" data-name="Grupo 299" transform="translate(0 0)">
          <path id="XMLID_17_" d="M0,33.086A33.365,33.365,0,0,0,3.523,48.018a1.521,1.521,0,0,0,2.181.559h0a1.5,1.5,0,0,0,.5-1.846A30.341,30.341,0,0,1,29.36,3a1.5,1.5,0,0,0,1.286-1.454h0A1.472,1.472,0,0,0,28.969.09,33.237,33.237,0,0,0,0,33.086Z" transform="translate(0 -0.023)" fill="#fff"/>
          <path id="XMLID_16_" d="M64.3,1.5h0a1.455,1.455,0,0,0,1.286,1.454,30.327,30.327,0,0,1,26.4,30.087A30.758,30.758,0,0,1,88.8,46.632a1.417,1.417,0,0,0,.5,1.846h0a1.481,1.481,0,0,0,2.181-.559A33.3,33.3,0,0,0,66.034-.009,1.533,1.533,0,0,0,64.3,1.5Z" transform="translate(-29.003 0.02)" fill="#fff"/>
          <path id="XMLID_15_" d="M39.333,104.9A29.656,29.656,0,0,1,16.924,94.662a1.435,1.435,0,0,0-1.932-.224h0a1.5,1.5,0,0,0-.276,2.181A32.581,32.581,0,0,0,64,96.563a1.5,1.5,0,0,0-.276-2.181h0a1.435,1.435,0,0,0-1.932.224A29.719,29.719,0,0,1,39.333,104.9Z" transform="translate(-6.332 -41.86)" fill="#fff"/>
        </g>
      </g>
    </g>
    <g id="Grupo_10088" data-name="Grupo 10088" transform="translate(1182.563 216.956)">
      <path id="Caminho_529" data-name="Caminho 529" d="M22.063,135.144a3.7,3.7,0,0,1-5.228,0,3.832,3.832,0,0,0-3.2-1.083A124.209,124.209,0,0,0,0,136.643c2.453,2.624,10.231,10.077,19.449,10.077s17-7.453,19.449-10.077a124.454,124.454,0,0,0-13.637-2.581A3.831,3.831,0,0,0,22.063,135.144Z" transform="translate(0 -123.877)" fill="#fff"/>
      <g id="Grupo_454" data-name="Grupo 454" transform="translate(0.38 0)">
        <path id="Caminho_530" data-name="Caminho 530" d="M20.93,64.675a1.225,1.225,0,0,0,1.734,0,6.318,6.318,0,0,1,5.271-1.785A128.46,128.46,0,0,1,40.867,65.28c-2.334-3.207-7.9-9.837-14.757-11.065a1.567,1.567,0,0,0-1.385.432L22.9,56.47a1.56,1.56,0,0,1-2.206,0l-1.823-1.823a1.567,1.567,0,0,0-1.385-.432C10.628,55.443,5.064,62.073,2.73,65.28a128.458,128.458,0,0,1,12.931-2.389A6.318,6.318,0,0,1,20.93,64.675ZM9.67,61.972a1.044,1.044,0,1,1,1.044-1.044A1.044,1.044,0,0,1,9.67,61.972Zm2.273-1.723a1.044,1.044,0,0,1-.618-1.887,16.734,16.734,0,0,1,5-2.659,1.044,1.044,0,0,1,.545,2.016,15.125,15.125,0,0,0-4.308,2.328A1.042,1.042,0,0,1,11.943,60.25Z" transform="translate(-2.73 -54.19)" fill="#fff"/>
      </g>
    </g>
  </g>
</svg>
