<svg xmlns="http://www.w3.org/2000/svg" width="66" height="66" viewBox="0 0 66 66">
  <g id="HAND_NAILS" data-name="HAND NAILS" transform="translate(-1381 -201)">
    <g id="Grupo_450" data-name="Grupo 450" transform="translate(1381 201)">
      <g id="Grupo_301" data-name="Grupo 301">
        <g id="Grupo_299" data-name="Grupo 299">
          <path id="XMLID_17_" d="M0,33.086A33.365,33.365,0,0,0,3.523,48.018a1.521,1.521,0,0,0,2.181.559h0a1.5,1.5,0,0,0,.5-1.846A30.341,30.341,0,0,1,29.36,3a1.5,1.5,0,0,0,1.286-1.454h0A1.472,1.472,0,0,0,28.969.09,33.237,33.237,0,0,0,0,33.086Z" transform="translate(0 -0.023)" fill="#fff"/>
          <path id="XMLID_16_" d="M64.3,1.5h0a1.455,1.455,0,0,0,1.286,1.454,30.327,30.327,0,0,1,26.4,30.087A30.758,30.758,0,0,1,88.8,46.632a1.417,1.417,0,0,0,.5,1.846h0a1.481,1.481,0,0,0,2.181-.559A33.3,33.3,0,0,0,66.034-.009,1.533,1.533,0,0,0,64.3,1.5Z" transform="translate(-29.003 0.02)" fill="#fff"/>
          <path id="XMLID_15_" d="M39.333,104.9A29.656,29.656,0,0,1,16.924,94.662a1.435,1.435,0,0,0-1.932-.224h0a1.5,1.5,0,0,0-.276,2.181A32.581,32.581,0,0,0,64,96.563a1.5,1.5,0,0,0-.276-2.181h0a1.435,1.435,0,0,0-1.932.224A29.719,29.719,0,0,1,39.333,104.9Z" transform="translate(-6.332 -41.86)" fill="#fff"/>
        </g>
      </g>
    </g>
    <g id="finger" transform="translate(1405.391 214.303)">
      <path id="Caminho_779" data-name="Caminho 779" d="M94.29,31.031l.253,5.32a7.038,7.038,0,0,1-7.024,7.366H87.5a7.038,7.038,0,0,1-7.024-7.366l.253-5.32a8.607,8.607,0,0,0-1.866,5.362V64.836a1.553,1.553,0,0,0,1.553,1.553H94.6a1.553,1.553,0,0,0,1.553-1.553V36.393A8.608,8.608,0,0,0,94.29,31.031ZM92.555,61.755H82.463a1.069,1.069,0,0,1,0-2.139H92.555a1.069,1.069,0,1,1,0,2.139Z" transform="translate(-78.863 -26.606)" fill="#fff"/>
      <path id="Caminho_780" data-name="Caminho 780" d="M109.688,80.681a4.888,4.888,0,0,0,4.241,2.456h.019a4.888,4.888,0,0,0,4.241-2.456,8.244,8.244,0,0,0-8.5,0Z" transform="translate(-105.293 -68.164)" fill="#fff"/>
      <path id="Caminho_781" data-name="Caminho 781" d="M110.023,9.2a10.034,10.034,0,0,1,4.891,1.2c.026-.4.041.19-.387-8.808A1.671,1.671,0,0,0,112.858,0h-5.67a1.671,1.671,0,0,0-1.669,1.592c-.428,8.994-.413,8.406-.387,8.808A10.034,10.034,0,0,1,110.023,9.2Z" transform="translate(-101.377 0)" fill="#fff"/>
    </g>
  </g>
</svg>
