<svg xmlns="http://www.w3.org/2000/svg" width="66" height="66" viewBox="0 0 66 66">
  <g id="SKIN" transform="translate(-1804 -195)">
    <g id="Grupo_10094" data-name="Grupo 10094" transform="translate(1804 195)">
      <g id="Grupo_450" data-name="Grupo 450" transform="translate(0 0)">
        <g id="Grupo_301" data-name="Grupo 301" transform="translate(0 0)">
          <g id="Grupo_299" data-name="Grupo 299">
            <path id="XMLID_17_" d="M0,33.086A33.365,33.365,0,0,0,3.523,48.018a1.521,1.521,0,0,0,2.181.559h0a1.5,1.5,0,0,0,.5-1.846A30.341,30.341,0,0,1,29.36,3a1.5,1.5,0,0,0,1.286-1.454h0A1.472,1.472,0,0,0,28.969.09,33.237,33.237,0,0,0,0,33.086Z" transform="translate(0 -0.023)" fill="#fff"/>
            <path id="XMLID_16_" d="M64.3,1.5h0a1.455,1.455,0,0,0,1.286,1.454,30.327,30.327,0,0,1,26.4,30.087A30.758,30.758,0,0,1,88.8,46.632a1.417,1.417,0,0,0,.5,1.846h0a1.481,1.481,0,0,0,2.181-.559A33.3,33.3,0,0,0,66.034-.009,1.533,1.533,0,0,0,64.3,1.5Z" transform="translate(-29.003 0.02)" fill="#fff"/>
            <path id="XMLID_15_" d="M39.333,104.9A29.656,29.656,0,0,1,16.924,94.662a1.435,1.435,0,0,0-1.932-.224h0a1.5,1.5,0,0,0-.276,2.181A32.581,32.581,0,0,0,64,96.563a1.5,1.5,0,0,0-.276-2.181h0a1.435,1.435,0,0,0-1.932.224A29.719,29.719,0,0,1,39.333,104.9Z" transform="translate(-6.332 -41.86)" fill="#fff"/>
          </g>
        </g>
      </g>
    </g>
    <g id="hair" transform="translate(1819.284 211.527)">
      <path id="Caminho_6729" data-name="Caminho 6729" d="M33.747,144.491H23.786a14.16,14.16,0,0,1,.6,5.269,6.919,6.919,0,0,1-6.884,6.178,7.016,7.016,0,0,1-.76-.042,6.585,6.585,0,0,1-4.553-2.579,8.137,8.137,0,0,1-1.594-4.857,18.429,18.429,0,0,1,.474-3.97h-9.4A1.664,1.664,0,0,0,0,146.155v11.487a1.664,1.664,0,0,0,1.664,1.664H33.747a1.664,1.664,0,0,0,1.664-1.664V146.155A1.664,1.664,0,0,0,33.747,144.491Z" transform="translate(0 -130.749)" fill="#fff"/>
      <path id="Caminho_6730" data-name="Caminho 6730" d="M108.7,52.219a5.209,5.209,0,0,0,.566.031,5.15,5.15,0,0,0,5.112-4.59c.592-5.411-4.542-10.155.187-17.577a.807.807,0,0,0-1.182-1.066c-7.627,6.041-9.269,14.341-9.243,17.524C104.161,49.385,105.869,51.91,108.7,52.219Zm-.329-2.512a.891.891,0,1,1-.891-.891A.891.891,0,0,1,108.368,49.707Zm-2.641-6.56a.891.891,0,0,1,1.718.475,8.64,8.64,0,0,0-.136,3.8.875.875,0,0,1-.558,1.024l-.017.006a.88.88,0,0,1-1.157-.614A10.582,10.582,0,0,1,105.726,43.147Z" transform="translate(-91.763 -28.843)" fill="#fff"/>
    </g>
  </g>
</svg>
