<svg xmlns="http://www.w3.org/2000/svg" width="66" height="66" viewBox="0 0 66 66">
  <g id="LOWER_BACK" data-name="LOWER BACK" transform="translate(-1169 -195)">
    <g id="Grupo_10330" data-name="Grupo 10330" transform="translate(585.518 -127.88)">
      <path id="human-back-1" d="M38.022,6.9l-4.556-.868a3.324,3.324,0,0,1-2.7-3.265V.879A.879.879,0,0,0,29.885,0h-7.16a.879.879,0,0,0-.879.879V2.762a3.324,3.324,0,0,1-2.7,3.265L14.588,6.9A4.805,4.805,0,0,0,10.7,11.981L12.29,32.939a.879.879,0,0,0,.877.812h3.794l.756-4.914L14.754,15.874a1.025,1.025,0,1,1,2-.457L19.8,28.762l-.768,4.99h14.54l-.768-4.99,3.05-13.345a1.025,1.025,0,0,1,2,.457L34.893,28.837l.756,4.914h3.794a.879.879,0,0,0,.877-.812l1.595-20.959A4.806,4.806,0,0,0,38.022,6.9Z" transform="translate(590.709 339.336)" fill="#fff"/>
    </g>
    <g id="Grupo_10331" data-name="Grupo 10331">
      <g id="Grupo_10328" data-name="Grupo 10328">
        <g id="Grupo_10087" data-name="Grupo 10087" transform="translate(1169 195)">
          <g id="Grupo_301" data-name="Grupo 301" transform="translate(0 0)">
            <g id="Grupo_299" data-name="Grupo 299" transform="translate(0 0)">
              <path id="XMLID_17_" d="M0,33.086A33.365,33.365,0,0,0,3.523,48.018a1.521,1.521,0,0,0,2.181.559h0a1.5,1.5,0,0,0,.5-1.846A30.341,30.341,0,0,1,29.36,3a1.5,1.5,0,0,0,1.286-1.454h0A1.472,1.472,0,0,0,28.969.09,33.237,33.237,0,0,0,0,33.086Z" transform="translate(0 -0.023)" fill="#fff"/>
              <path id="XMLID_16_" d="M64.3,1.5h0a1.455,1.455,0,0,0,1.286,1.454,30.327,30.327,0,0,1,26.4,30.087A30.758,30.758,0,0,1,88.8,46.632a1.417,1.417,0,0,0,.5,1.846h0a1.481,1.481,0,0,0,2.181-.559A33.3,33.3,0,0,0,66.034-.009,1.533,1.533,0,0,0,64.3,1.5Z" transform="translate(-29.003 0.02)" fill="#fff"/>
              <path id="XMLID_15_" d="M39.333,104.9A29.656,29.656,0,0,1,16.924,94.662a1.435,1.435,0,0,0-1.932-.224h0a1.5,1.5,0,0,0-.276,2.181A32.581,32.581,0,0,0,64,96.563a1.5,1.5,0,0,0-.276-2.181h0a1.435,1.435,0,0,0-1.932.224A29.719,29.719,0,0,1,39.333,104.9Z" transform="translate(-6.332 -41.86)" fill="#fff"/>
            </g>
          </g>
        </g>
      </g>
      <g id="arrow-back" transform="translate(1193.666 237.334) rotate(-90)">
        <rect id="Retângulo_195" data-name="Retângulo 195" width="18" height="18" transform="translate(18.334 0.334) rotate(90)" fill="#15d4d8" opacity="0"/>
        <path id="Caminho_3897" data-name="Caminho 3897" d="M15.667,9.667H6.442L9.266,6.275a.779.779,0,0,0-1.2-1L4.179,9.947a.926.926,0,0,0-.07.117.1.1,0,0,1-.054.1.747.747,0,0,0,0,.56.1.1,0,0,0,.054.1.926.926,0,0,0,.07.117l3.889,4.667a.779.779,0,1,0,1.2-1L6.442,11.222h9.225a.778.778,0,1,0,0-1.556Z" transform="translate(-0.889 -1.111)" fill="#15d4d8"/>
      </g>
    </g>
  </g>
</svg>
