<svg xmlns="http://www.w3.org/2000/svg" width="66" height="66" viewBox="0 0 66 66">
  <g id="ELBOWS" transform="translate(-1169 -195)">
    <g id="Grupo_10328" data-name="Grupo 10328">
      <g id="Grupo_10087" data-name="Grupo 10087" transform="translate(1169 195)">
        <g id="Grupo_301" data-name="Grupo 301" transform="translate(0 0)">
          <g id="Grupo_299" data-name="Grupo 299" transform="translate(0 0)">
            <path id="XMLID_17_" d="M0,33.086A33.365,33.365,0,0,0,3.523,48.018a1.521,1.521,0,0,0,2.181.559h0a1.5,1.5,0,0,0,.5-1.846A30.341,30.341,0,0,1,29.36,3a1.5,1.5,0,0,0,1.286-1.454h0A1.472,1.472,0,0,0,28.969.09,33.237,33.237,0,0,0,0,33.086Z" transform="translate(0 -0.023)" fill="#fff"/>
            <path id="XMLID_16_" d="M64.3,1.5h0a1.455,1.455,0,0,0,1.286,1.454,30.327,30.327,0,0,1,26.4,30.087A30.758,30.758,0,0,1,88.8,46.632a1.417,1.417,0,0,0,.5,1.846h0a1.481,1.481,0,0,0,2.181-.559A33.3,33.3,0,0,0,66.034-.009,1.533,1.533,0,0,0,64.3,1.5Z" transform="translate(-29.003 0.02)" fill="#fff"/>
            <path id="XMLID_15_" d="M39.333,104.9A29.656,29.656,0,0,1,16.924,94.662a1.435,1.435,0,0,0-1.932-.224h0a1.5,1.5,0,0,0-.276,2.181A32.581,32.581,0,0,0,64,96.563a1.5,1.5,0,0,0-.276-2.181h0a1.435,1.435,0,0,0-1.932.224A29.719,29.719,0,0,1,39.333,104.9Z" transform="translate(-6.332 -41.86)" fill="#fff"/>
          </g>
        </g>
      </g>
      <path id="human-elbow" d="M55.378,20.707q-1.223-.054-2.489-.055a43.622,43.622,0,0,0-14.478,2.194,54.15,54.15,0,0,0,.683-9.583A56.75,56.75,0,0,0,37.309,1.1,1.529,1.529,0,0,0,35.843,0h-4.05a1.527,1.527,0,0,0-1.467,1.1,56.818,56.818,0,0,0-1.763,12.163c0,5.421.41,10.208,1.709,13.079a2.415,2.415,0,0,1-.008,2.007,2.444,2.444,0,0,0,.174,2.78,2.362,2.362,0,0,0,2.6.256,2.415,2.415,0,0,1,2.2.2C38.723,33.8,45.322,35.3,52.889,35.3q1.264,0,2.489-.055a1.527,1.527,0,0,0,1.46-1.527V22.234A1.528,1.528,0,0,0,55.378,20.707Zm-4.632,3.24a30.739,30.739,0,0,0-6.636.816.923.923,0,0,1-.461-1.787,32.07,32.07,0,0,1,7.089-.875h0a.922.922,0,0,1,0,1.845Zm2.4.015a.922.922,0,1,1,.922-.922A.923.923,0,0,1,53.149,23.962Z" transform="translate(1164.99 207.262)" fill="#fff"/>
      <rect id="Retângulo_3747" data-name="Retângulo 3747" width="2.561" height="6.952" rx="1.281" transform="translate(1187.648 243.372) rotate(-115)" fill="#fff"/>
      <rect id="Retângulo_3748" data-name="Retângulo 3748" width="2.561" height="6.952" rx="1.281" transform="matrix(0.309, -0.951, 0.951, 0.309, 1185.304, 234.787)" fill="#fff"/>
      <rect id="Retângulo_3749" data-name="Retângulo 3749" width="2.561" height="6.952" rx="1.281" transform="translate(1195.306 249.013) rotate(-164)" fill="#fff"/>
    </g>
  </g>
</svg>
