<svg xmlns="http://www.w3.org/2000/svg" width="66" height="66" viewBox="0 0 66 66">
  <g id="Nose" transform="translate(-851 -116)">
    <g id="Grupo_301" data-name="Grupo 301" transform="translate(851 116)">
      <g id="Grupo_299" data-name="Grupo 299" transform="translate(0)">
        <path id="XMLID_17_" d="M0,33.086A33.365,33.365,0,0,0,3.523,48.018a1.521,1.521,0,0,0,2.181.559h0a1.5,1.5,0,0,0,.5-1.846A30.341,30.341,0,0,1,29.36,3a1.5,1.5,0,0,0,1.286-1.454h0A1.472,1.472,0,0,0,28.969.09,33.237,33.237,0,0,0,0,33.086Z" transform="translate(0 -0.023)" fill="#fff"/>
        <path id="XMLID_16_" d="M64.3,1.5h0a1.455,1.455,0,0,0,1.286,1.454,30.327,30.327,0,0,1,26.4,30.087A30.758,30.758,0,0,1,88.8,46.632a1.417,1.417,0,0,0,.5,1.846h0a1.481,1.481,0,0,0,2.181-.559A33.3,33.3,0,0,0,66.034-.009,1.533,1.533,0,0,0,64.3,1.5Z" transform="translate(-29.003 0.02)" fill="#fff"/>
        <path id="XMLID_15_" d="M39.333,104.9A29.656,29.656,0,0,1,16.924,94.662a1.435,1.435,0,0,0-1.932-.224h0a1.5,1.5,0,0,0-.276,2.181A32.581,32.581,0,0,0,64,96.563a1.5,1.5,0,0,0-.276-2.181h0a1.435,1.435,0,0,0-1.932.224A29.719,29.719,0,0,1,39.333,104.9Z" transform="translate(-6.332 -41.86)" fill="#fff"/>
      </g>
    </g>
    <path id="nose-2" data-name="nose" d="M35.4,15.969c-.771,0-3.21-13.024-3.21-13.024a3.19,3.19,0,0,0-6.361,0s-2.439,13.024-3.21,13.024a5.532,5.532,0,1,0,2.09,10.654,5.3,5.3,0,0,1-.893-2.124,3.642,3.642,0,0,1-.65.058c-1.147,0-2.077-.512-2.077-1.144s.93-1.144,2.077-1.144c1.062,0,1.936.439,2.06,1.006l.042,0a3.754,3.754,0,1,0,7.485,0l.042,0c.124-.567,1-1.006,2.06-1.006,1.147,0,2.077.512,2.077,1.144s-.93,1.144-2.077,1.144a3.641,3.641,0,0,1-.65-.058,5.3,5.3,0,0,1-.893,2.124A5.532,5.532,0,1,0,35.4,15.969Zm-9.854,1.9a.763.763,0,1,1,.763-.763A.763.763,0,0,1,25.544,17.866Zm2.711-9.983L26.832,14.7a.763.763,0,0,1-.746.607.774.774,0,0,1-.157-.016.763.763,0,0,1-.591-.9l1.423-6.812a.763.763,0,0,1,1.493.312Z" transform="translate(855.496 133.267)" fill="#fff"/>
  </g>
</svg>
