<svg xmlns="http://www.w3.org/2000/svg" width="66" height="66" viewBox="0 0 66 66">
  <g id="HIPS" transform="translate(-377 -147)">
    <g id="MENSTRUATION" transform="translate(299 -211)">
      <g id="Grupo_450" data-name="Grupo 450" transform="translate(78 358)">
        <g id="Grupo_301" data-name="Grupo 301" transform="translate(0)">
          <g id="Grupo_299" data-name="Grupo 299">
            <path id="XMLID_17_" d="M0,33.086A33.365,33.365,0,0,0,3.523,48.018a1.521,1.521,0,0,0,2.181.559h0a1.5,1.5,0,0,0,.5-1.846A30.341,30.341,0,0,1,29.36,3a1.5,1.5,0,0,0,1.286-1.454h0A1.472,1.472,0,0,0,28.969.09,33.237,33.237,0,0,0,0,33.086Z" transform="translate(0 -0.023)" fill="#fff"/>
            <path id="XMLID_16_" d="M64.3,1.5h0a1.455,1.455,0,0,0,1.286,1.454,30.327,30.327,0,0,1,26.4,30.087A30.758,30.758,0,0,1,88.8,46.632a1.417,1.417,0,0,0,.5,1.846h0a1.481,1.481,0,0,0,2.181-.559A33.3,33.3,0,0,0,66.034-.009,1.533,1.533,0,0,0,64.3,1.5Z" transform="translate(-29.003 0.02)" fill="#fff"/>
            <path id="XMLID_15_" d="M39.333,104.9A29.656,29.656,0,0,1,16.924,94.662a1.435,1.435,0,0,0-1.932-.224h0a1.5,1.5,0,0,0-.276,2.181A32.581,32.581,0,0,0,64,96.563a1.5,1.5,0,0,0-.276-2.181h0a1.435,1.435,0,0,0-1.932.224A29.719,29.719,0,0,1,39.333,104.9Z" transform="translate(-6.332 -41.86)" fill="#fff"/>
          </g>
        </g>
      </g>
    </g>
    <g id="pelvis" transform="translate(388.843 164.226)">
      <path id="Caminho_10301" data-name="Caminho 10301" d="M6.193,129.367A2.873,2.873,0,0,0,3.8,130.646a1.846,1.846,0,0,1-1.534.82,2.268,2.268,0,0,0,0,4.535,1.049,1.049,0,0,1,1.049,1.049v10.533a.466.466,0,0,0,.466.466h2.4a.466.466,0,0,0,.466-.466V136.646a2.34,2.34,0,0,1,1.083-1.972,2.877,2.877,0,0,0-1.54-5.306Z" transform="translate(0.001 -116.918)" fill="#fff"/>
      <path id="Caminho_10302" data-name="Caminho 10302" d="M245.519,131.465a1.846,1.846,0,0,1-1.534-.82,2.877,2.877,0,1,0-3.932,4.027,2.339,2.339,0,0,1,1.083,1.972v10.937a.466.466,0,0,0,.466.466H244a.466.466,0,0,0,.466-.466V137.05A1.049,1.049,0,0,1,245.518,136a2.268,2.268,0,0,0,0-4.535Z" transform="translate(-204.885 -116.918)" fill="#fff"/>
      <path id="Caminho_10303" data-name="Caminho 10303" d="M81.842,42.826a5.992,5.992,0,0,0-8.418.971,3.33,3.33,0,0,1-5.217,0,5.992,5.992,0,1,0-8.418,8.418l.869.689a4.343,4.343,0,0,1,.7,6.1,3.752,3.752,0,0,0,5.272,5.272,6.729,6.729,0,0,1,8.363,0,3.752,3.752,0,0,0,5.272-5.272,4.343,4.343,0,0,1,.7-6.1l.869-.689A5.991,5.991,0,0,0,81.842,42.826ZM64.155,45.721a2.294,2.294,0,0,0-2.291,2.291,1.063,1.063,0,0,1-2.126,0A4.422,4.422,0,0,1,64.155,43.6a1.063,1.063,0,1,1,0,2.126Z" transform="translate(-49.368 -41.528)" fill="#fff"/>
    </g>
  </g>
</svg>
