<svg xmlns="http://www.w3.org/2000/svg" width="66" height="66" viewBox="0 0 66 66">
  <g id="DIGESTION_INTESTINES_" data-name="DIGESTION (INTESTINES)" transform="translate(-479 -432)">
    <g id="Grupo_10324" data-name="Grupo 10324" transform="translate(479 432)">
      <g id="Grupo_301" data-name="Grupo 301">
        <g id="Grupo_299" data-name="Grupo 299">
          <path id="XMLID_17_" d="M0,33.086A33.365,33.365,0,0,0,3.523,48.018a1.521,1.521,0,0,0,2.181.559h0a1.5,1.5,0,0,0,.5-1.846A30.341,30.341,0,0,1,29.36,3a1.5,1.5,0,0,0,1.286-1.454h0A1.472,1.472,0,0,0,28.969.09,33.237,33.237,0,0,0,0,33.086Z" transform="translate(0 -0.023)" fill="#fff"/>
          <path id="XMLID_16_" d="M64.3,1.5h0a1.455,1.455,0,0,0,1.286,1.454,30.327,30.327,0,0,1,26.4,30.087A30.758,30.758,0,0,1,88.8,46.632a1.417,1.417,0,0,0,.5,1.846h0a1.481,1.481,0,0,0,2.181-.559A33.3,33.3,0,0,0,66.034-.009,1.533,1.533,0,0,0,64.3,1.5Z" transform="translate(-29.003 0.02)" fill="#fff"/>
          <path id="XMLID_15_" d="M39.333,104.9A29.656,29.656,0,0,1,16.924,94.662a1.435,1.435,0,0,0-1.932-.224h0a1.5,1.5,0,0,0-.276,2.181A32.581,32.581,0,0,0,64,96.563a1.5,1.5,0,0,0-.276-2.181h0a1.435,1.435,0,0,0-1.932.224A29.719,29.719,0,0,1,39.333,104.9Z" transform="translate(-6.332 -41.86)" fill="#fff"/>
        </g>
      </g>
    </g>
    <path id="medical" d="M53.3,7.773A6.322,6.322,0,0,0,52.6,1.838a.564.564,0,0,0-.038-.05C51.147.147,48.829.428,46.891,1.371,45-.266,42.7-.576,40.84,1.2c-.755-.487-2.425-1.149-4.955.081A4.118,4.118,0,0,0,30.5,1.151a4.4,4.4,0,0,0-3.7.11,5.38,5.38,0,0,0-2.329,3.319C21.981,5.879,21.732,8.417,23,10.91c-1.657,2.29-1.133,4.656.944,6.386-1.139,1.945.293,6.119,3.836,5.7-.173,1.1-.707,3.093.522,3.93a1.81,1.81,0,0,0,2.317-.079c.731-.679.577-1.934.441-3.041a4.205,4.205,0,0,1-.035-1.527c1.415-1.632.983-6.176-2.126-7.488a5.507,5.507,0,0,0-.35-5.128A3.3,3.3,0,0,0,29.9,7.281a5.183,5.183,0,0,0,4.241.286,5.649,5.649,0,0,0,5.831-.378c.951.384,3.867,1.367,6.235.134a4.413,4.413,0,0,0,1.83,3.8,6.523,6.523,0,0,0-.409,4.434c-1.839.984-2.527,2.6-2.094,4.908a3.855,3.855,0,0,0-2.88,2.61c-3.068-1.73-5.762-1.318-7.806,1.5-2.726,3.765,1.238,10.564,1.408,10.851a.558.558,0,0,0,.48.274h1.815a.558.558,0,0,0,.415-.186c1.658-1.85,2.051-4.733,2.142-6.2,2.515,1.079,4.813.418,5.992-2.319a5.756,5.756,0,0,0,3.631-1.827,5.4,5.4,0,0,0,1.083-4.188,6.183,6.183,0,0,0,2.255-6.728A6.2,6.2,0,0,0,53.3,7.773Z" transform="translate(473.7 449.792)" fill="#fff"/>
  </g>
</svg>
