<svg xmlns="http://www.w3.org/2000/svg" width="66" height="66" viewBox="0 0 66 66">
  <g id="NECK_THROAT" data-name="NECK / THROAT" transform="translate(-479 -324)">
    <g id="Grupo_450" data-name="Grupo 450" transform="translate(479 324)">
      <g id="Grupo_301" data-name="Grupo 301">
        <g id="Grupo_299" data-name="Grupo 299">
          <path id="XMLID_17_" d="M0,33.086A33.365,33.365,0,0,0,3.523,48.018a1.521,1.521,0,0,0,2.181.559h0a1.5,1.5,0,0,0,.5-1.846A30.341,30.341,0,0,1,29.36,3a1.5,1.5,0,0,0,1.286-1.454h0A1.472,1.472,0,0,0,28.969.09,33.237,33.237,0,0,0,0,33.086Z" transform="translate(0 -0.023)" fill="#fff"/>
          <path id="XMLID_16_" d="M64.3,1.5h0a1.455,1.455,0,0,0,1.286,1.454,30.327,30.327,0,0,1,26.4,30.087A30.758,30.758,0,0,1,88.8,46.632a1.417,1.417,0,0,0,.5,1.846h0a1.481,1.481,0,0,0,2.181-.559A33.3,33.3,0,0,0,66.034-.009,1.533,1.533,0,0,0,64.3,1.5Z" transform="translate(-29.003 0.02)" fill="#fff"/>
          <path id="XMLID_15_" d="M39.333,104.9A29.656,29.656,0,0,1,16.924,94.662a1.435,1.435,0,0,0-1.932-.224h0a1.5,1.5,0,0,0-.276,2.181A32.581,32.581,0,0,0,64,96.563a1.5,1.5,0,0,0-.276-2.181h0a1.435,1.435,0,0,0-1.932.224A29.719,29.719,0,0,1,39.333,104.9Z" transform="translate(-6.332 -41.86)" fill="#fff"/>
        </g>
      </g>
    </g>
    <g id="throat" transform="translate(496 336.257)">
      <path id="Caminho_740" data-name="Caminho 740" d="M109.669,195.128l-2.6,11.465h2.156a1.442,1.442,0,0,0,1.405-1.118l.8-3.481h6.5a6.316,6.316,0,0,0,6.036-5.5c.171-1.016.349-2.108.522-3.214H111.979A2.356,2.356,0,0,0,109.669,195.128Z" transform="translate(-96.296 -167.181)" fill="#fff"/>
      <path id="Caminho_741" data-name="Caminho 741" d="M59.1,20.824l-2.6-5.251C56.024,6.854,51.036,0,43.1,0,29.846,0,27.3,7.08,27.3,14.319a12.994,12.994,0,0,0,3.992,9.287L28,37.855a1.271,1.271,0,0,0,1.239,1.557H35.3l2.737-12.063A5.044,5.044,0,0,1,42.983,23.4l14.821,0a1.518,1.518,0,0,0,1.342-.866A1.819,1.819,0,0,0,59.1,20.824ZM34.364,6.256A7.019,7.019,0,0,0,31.7,11.944a1.013,1.013,0,0,1-.978,1.047h-.035a1.013,1.013,0,0,1-1.012-.978,9.074,9.074,0,0,1,3.514-7.407,1.013,1.013,0,0,1,1.176,1.649Zm1.993-1.195A1.013,1.013,0,1,1,37.37,4.048,1.013,1.013,0,0,1,36.357,5.061Z" transform="translate(-27.299)" fill="#fff"/>
    </g>
  </g>
</svg>
