<svg xmlns="http://www.w3.org/2000/svg" width="66" height="66" viewBox="0 0 66 66">
  <g id="Grupo_10333" data-name="Grupo 10333" transform="translate(-479 -432)">
    <g id="Grupo_10325" data-name="Grupo 10325" transform="translate(479 432)">
      <g id="Grupo_301" data-name="Grupo 301">
        <g id="Grupo_299" data-name="Grupo 299">
          <path id="XMLID_17_" d="M0,33.086A33.365,33.365,0,0,0,3.523,48.018a1.521,1.521,0,0,0,2.181.559h0a1.5,1.5,0,0,0,.5-1.846A30.341,30.341,0,0,1,29.36,3a1.5,1.5,0,0,0,1.286-1.454h0A1.472,1.472,0,0,0,28.969.09,33.237,33.237,0,0,0,0,33.086Z" transform="translate(0 -0.023)" fill="#fff"/>
          <path id="XMLID_16_" d="M64.3,1.5h0a1.455,1.455,0,0,0,1.286,1.454,30.327,30.327,0,0,1,26.4,30.087A30.758,30.758,0,0,1,88.8,46.632a1.417,1.417,0,0,0,.5,1.846h0a1.481,1.481,0,0,0,2.181-.559A33.3,33.3,0,0,0,66.034-.009,1.533,1.533,0,0,0,64.3,1.5Z" transform="translate(-29.003 0.02)" fill="#fff"/>
          <path id="XMLID_15_" d="M39.333,104.9A29.656,29.656,0,0,1,16.924,94.662a1.435,1.435,0,0,0-1.932-.224h0a1.5,1.5,0,0,0-.276,2.181A32.581,32.581,0,0,0,64,96.563a1.5,1.5,0,0,0-.276-2.181h0a1.435,1.435,0,0,0-1.932.224A29.719,29.719,0,0,1,39.333,104.9Z" transform="translate(-6.332 -41.86)" fill="#fff"/>
        </g>
      </g>
    </g>
    <path id="Can_you_confirm_your_blood_type_" data-name="Can you confirm your blood type ?" d="M2.966,1.222C2.517.579,2.062.056,2.057.05a.147.147,0,0,0-.222,0c0,.005-.46.529-.909,1.172A4.169,4.169,0,0,0,0,3.236,1.678,1.678,0,0,0,.578,4.55a2.086,2.086,0,0,0,1.368.468A2.086,2.086,0,0,0,3.314,4.55a1.678,1.678,0,0,0,.578-1.314A4.169,4.169,0,0,0,2.966,1.222ZM2.931,4.1a.147.147,0,0,1-.192-.223.81.81,0,0,0,.272-.646.147.147,0,0,1,.294,0A1.092,1.092,0,0,1,2.931,4.1Zm0,0" transform="translate(505.266 453.013)" fill="#fff"/>
    <path id="leg" d="M48.117,34.167a1.006,1.006,0,0,0-.684-.687c-1.037-.3-5.15-.422-8.406-4.294a3.751,3.751,0,0,1-1.2-3.1V8.125a5.1,5.1,0,0,0-4.188-5.017L16.747.017a1.019,1.019,0,0,0-1.2,1v9a1.019,1.019,0,0,0,1.085,1.017l14.152-.918a22.222,22.222,0,0,0,1.407,10.868l.665,1.674a11.234,11.234,0,0,1,.285,6.929s-.252,1.037-.382,1.367a3.869,3.869,0,0,0,.266,3.738,3.578,3.578,0,0,0,3.456,1.45l.729-.113a12.156,12.156,0,0,1,2.353-.134l5.955.24A3.025,3.025,0,0,0,47.9,35.115l0,0a1.006,1.006,0,0,0,.214-.945ZM25.436,3.763a.861.861,0,0,1-.986.716l-5.979-.95a.861.861,0,1,1,.27-1.7l5.979.95A.861.861,0,0,1,25.436,3.763Zm1.449.976a.861.861,0,1,1,.861-.861A.862.862,0,0,1,26.885,4.738Z" transform="translate(480.455 446.679)" fill="#fff"/>
  </g>
</svg>
