<svg xmlns="http://www.w3.org/2000/svg" width="66" height="66" viewBox="0 0 66 66">
  <g id="KIDNEYS" transform="translate(-1169 -195)">
    <g id="Grupo_10328" data-name="Grupo 10328">
      <g id="Grupo_10087" data-name="Grupo 10087" transform="translate(1169 195)">
        <g id="Grupo_301" data-name="Grupo 301" transform="translate(0 0)">
          <g id="Grupo_299" data-name="Grupo 299" transform="translate(0 0)">
            <path id="XMLID_17_" d="M0,33.086A33.365,33.365,0,0,0,3.523,48.018a1.521,1.521,0,0,0,2.181.559h0a1.5,1.5,0,0,0,.5-1.846A30.341,30.341,0,0,1,29.36,3a1.5,1.5,0,0,0,1.286-1.454h0A1.472,1.472,0,0,0,28.969.09,33.237,33.237,0,0,0,0,33.086Z" transform="translate(0 -0.023)" fill="#fff"/>
            <path id="XMLID_16_" d="M64.3,1.5h0a1.455,1.455,0,0,0,1.286,1.454,30.327,30.327,0,0,1,26.4,30.087A30.758,30.758,0,0,1,88.8,46.632a1.417,1.417,0,0,0,.5,1.846h0a1.481,1.481,0,0,0,2.181-.559A33.3,33.3,0,0,0,66.034-.009,1.533,1.533,0,0,0,64.3,1.5Z" transform="translate(-29.003 0.02)" fill="#fff"/>
            <path id="XMLID_15_" d="M39.333,104.9A29.656,29.656,0,0,1,16.924,94.662a1.435,1.435,0,0,0-1.932-.224h0a1.5,1.5,0,0,0-.276,2.181A32.581,32.581,0,0,0,64,96.563a1.5,1.5,0,0,0-.276-2.181h0a1.435,1.435,0,0,0-1.932.224A29.719,29.719,0,0,1,39.333,104.9Z" transform="translate(-6.332 -41.86)" fill="#fff"/>
          </g>
        </g>
      </g>
    </g>
    <g id="kidneys-2" data-name="kidneys" transform="translate(1181 147.789)">
      <path id="Caminho_10312" data-name="Caminho 10312" d="M179.863,75.751c-3.272-5.354-7.9-9.272-14.4-6.764-2.963,1.144-4.727,5.788-2.645,8.184a4.557,4.557,0,0,0,4.957,1l-3.091,4.365a5.569,5.569,0,0,0-1.024,3.219v2.86a.756.756,0,0,0,.756.756h1.5a.756.756,0,0,0,.756-.756v-3.11a1.576,1.576,0,0,1,.276-.892l2.913-4.244c1.986,4.774.664,11,7.155,11C181.729,91.375,183.135,81.105,179.863,75.751Z" transform="translate(-140.11)" fill="#fff"/>
      <path id="Caminho_10313" data-name="Caminho 10313" d="M16.18,68.987c-6.5-2.508-11.128,1.41-14.4,6.764S-.085,91.375,4.621,91.375c6.492,0,5.169-6.23,7.155-11l2.912,4.244a1.576,1.576,0,0,1,.276.892v3.11a.756.756,0,0,0,.756.756h1.5a.756.756,0,0,0,.756-.756v-2.86a5.569,5.569,0,0,0-1.024-3.219l-3.091-4.365a4.557,4.557,0,0,0,4.957-1C20.907,74.775,19.143,70.131,16.18,68.987Zm-11.2,7.478a1,1,0,1,1,1-1A1,1,0,0,1,4.975,76.465Zm2.449-2.626a1.01,1.01,0,0,1-1.621-1.2c2.062-2.776,5.8-3.036,5.959-3.046a1.01,1.01,0,0,1,.126,2.016A6.738,6.738,0,0,0,7.424,73.839Z" transform="translate(0 0)" fill="#fff"/>
    </g>
  </g>
</svg>
