<svg xmlns="http://www.w3.org/2000/svg" width="66" height="66" viewBox="0 0 66 66">
  <g id="DIGESTION_STOMACH_" data-name="DIGESTION (STOMACH)" transform="translate(-479 -432)">
    <g id="Grupo_10321" data-name="Grupo 10321" transform="translate(479 432)">
      <g id="Grupo_301" data-name="Grupo 301">
        <g id="Grupo_299" data-name="Grupo 299">
          <path id="XMLID_17_" d="M0,33.086A33.365,33.365,0,0,0,3.523,48.018a1.521,1.521,0,0,0,2.181.559h0a1.5,1.5,0,0,0,.5-1.846A30.341,30.341,0,0,1,29.36,3a1.5,1.5,0,0,0,1.286-1.454h0A1.472,1.472,0,0,0,28.969.09,33.237,33.237,0,0,0,0,33.086Z" transform="translate(0 -0.023)" fill="#fff"/>
          <path id="XMLID_16_" d="M64.3,1.5h0a1.455,1.455,0,0,0,1.286,1.454,30.327,30.327,0,0,1,26.4,30.087A30.758,30.758,0,0,1,88.8,46.632a1.417,1.417,0,0,0,.5,1.846h0a1.481,1.481,0,0,0,2.181-.559A33.3,33.3,0,0,0,66.034-.009,1.533,1.533,0,0,0,64.3,1.5Z" transform="translate(-29.003 0.02)" fill="#fff"/>
          <path id="XMLID_15_" d="M39.333,104.9A29.656,29.656,0,0,1,16.924,94.662a1.435,1.435,0,0,0-1.932-.224h0a1.5,1.5,0,0,0-.276,2.181A32.581,32.581,0,0,0,64,96.563a1.5,1.5,0,0,0-.276-2.181h0a1.435,1.435,0,0,0-1.932.224A29.719,29.719,0,0,1,39.333,104.9Z" transform="translate(-6.332 -41.86)" fill="#fff"/>
        </g>
      </g>
    </g>
    <path id="stomach" d="M33.682,5.608,33.649,5.6a17.165,17.165,0,0,0-.832-5.3.434.434,0,0,0-.577-.262l-2.2.91a.433.433,0,0,0-.247.533,13.83,13.83,0,0,1,.613,3.991c-2.829.692-5.105,3.55-7.684,7.3C17.9,19.789,11.032,18.434,12.34,28.322c.5,3.8,3.226,8.056,6.345,12.211a.433.433,0,0,0,.608.085l1.895-1.434a.433.433,0,0,0,.087-.6,31.68,31.68,0,0,1-4.839-8.943c-.867-3.249.611-5.865,2.225-4.983,6.641,3.628,11.564,3.483,15.852-1.816S38.572,7.1,33.682,5.608ZM24.9,15.721a.972.972,0,1,1,.972-.972A.972.972,0,0,1,24.9,15.721Zm5.644-6.2A8.865,8.865,0,0,0,27.151,13.1a.972.972,0,0,1-1.688-.966A10.518,10.518,0,0,1,29.74,7.751a.972.972,0,0,1,.8,1.772Z" transform="translate(487.353 444.864)" fill="#fff"/>
  </g>
</svg>
