<svg xmlns="http://www.w3.org/2000/svg" width="66" height="66" viewBox="0 0 66 66">
    <defs>
        <style>
            .prefix__cls-1{fill:#fff}
        </style>
    </defs>
    <g id="prefix__Grupo_10790" data-name="Grupo 10790" transform="translate(-830 -238)">
        <g id="prefix__Grupo_10236" data-name="Grupo 10236" transform="translate(-6 -65)">
            <g id="prefix__Grupo_10235" data-name="Grupo 10235" transform="translate(836 303)">
                <g id="prefix__Grupo_301" data-name="Grupo 301">
                    <g id="prefix__Grupo_299" data-name="Grupo 299">
                        <path id="prefix__XMLID_17_" d="M0 33.086a33.365 33.365 0 0 0 3.523 14.932 1.521 1.521 0 0 0 2.181.559 1.5 1.5 0 0 0 .5-1.846A30.341 30.341 0 0 1 29.36 3a1.5 1.5 0 0 0 1.286-1.454A1.472 1.472 0 0 0 28.969.09 33.237 33.237 0 0 0 0 33.086z" class="prefix__cls-1" transform="translate(0 -.023)"/>
                        <path id="prefix__XMLID_16_" d="M64.3 1.5a1.455 1.455 0 0 0 1.286 1.454 30.327 30.327 0 0 1 26.4 30.087A30.758 30.758 0 0 1 88.8 46.632a1.417 1.417 0 0 0 .5 1.846 1.481 1.481 0 0 0 2.181-.559A33.3 33.3 0 0 0 66.034-.009 1.533 1.533 0 0 0 64.3 1.5z" class="prefix__cls-1" transform="translate(-29.003 .02)"/>
                        <path id="prefix__XMLID_15_" d="M39.333 104.9a29.656 29.656 0 0 1-22.409-10.238 1.435 1.435 0 0 0-1.932-.224 1.5 1.5 0 0 0-.276 2.181A32.581 32.581 0 0 0 64 96.563a1.5 1.5 0 0 0-.276-2.181 1.435 1.435 0 0 0-1.932.224A29.719 29.719 0 0 1 39.333 104.9z" class="prefix__cls-1" transform="translate(-6.332 -41.86)"/>
                    </g>
                </g>
            </g>
        </g>
        <g id="prefix__knee" transform="translate(850.787 252.856)">
            <path id="prefix__Caminho_782" d="M53.82 82.12a5.328 5.328 0 0 1 3 .935 5.328 5.328 0 0 1 3-.935h.057a5.284 5.284 0 0 1-2.03-4.1 5.324 5.324 0 0 1-3.293-3.589 6.7 6.7 0 0 0-4.243 6.292 6.878 6.878 0 0 0 .422 2.379 5.285 5.285 0 0 1 3.087-.982z" class="prefix__cls-1" data-name="Caminho 782" transform="translate(-50.32 -65.426)"/>
            <path id="prefix__Caminho_783" d="M59.829 152.926a3.5 3.5 0 0 0-3 1.7A3.5 3.5 0 1 0 51 158.5a14.275 14.275 0 0 1 2.79 8.468v2.206a1.194 1.194 0 0 0 1.194 1.194h3.68a1.194 1.194 0 0 0 1.194-1.194v-2.204a14.232 14.232 0 0 1 2.79-8.468 3.5 3.5 0 0 0-2.819-5.575z" class="prefix__cls-1" data-name="Caminho 783" transform="translate(-50.32 -134.417)"/>
            <path id="prefix__Caminho_784" d="M116.526 3.507L114.4.5a1.193 1.193 0 0 0-1.665-.28l-1.8 1.275a14.228 14.228 0 0 1-8.245 2.621H102.345a3.5 3.5 0 0 0 .006 7q.134 0 .268-.01a3.5 3.5 0 1 0 6.525 2.515 14.275 14.275 0 0 1 5.3-7.171l1.8-1.275a1.194 1.194 0 0 0 .282-1.668zm-13.79 3.362a.987.987 0 0 0-.986.985.908.908 0 1 1-1.816 0 2.8 2.8 0 0 1 2.8-2.8.908.908 0 0 1 0 1.816z" class="prefix__cls-1" data-name="Caminho 784" transform="translate(-92.974)"/>
        </g>
    </g>
</svg>
