<svg xmlns="http://www.w3.org/2000/svg" width="66" height="66" viewBox="0 0 66 66">
  <g id="CARDIOVASCULAR" transform="translate(-836 -303)">
    <g id="Grupo_10235" data-name="Grupo 10235" transform="translate(836 303)">
      <g id="Grupo_301" data-name="Grupo 301" transform="translate(0 0)">
        <g id="Grupo_299" data-name="Grupo 299" transform="translate(0)">
          <path id="XMLID_17_" d="M0,33.086A33.365,33.365,0,0,0,3.523,48.018a1.521,1.521,0,0,0,2.181.559h0a1.5,1.5,0,0,0,.5-1.846A30.341,30.341,0,0,1,29.36,3a1.5,1.5,0,0,0,1.286-1.454h0A1.472,1.472,0,0,0,28.969.09,33.237,33.237,0,0,0,0,33.086Z" transform="translate(0 -0.023)" fill="#fff"/>
          <path id="XMLID_16_" d="M64.3,1.5h0a1.455,1.455,0,0,0,1.286,1.454,30.327,30.327,0,0,1,26.4,30.087A30.758,30.758,0,0,1,88.8,46.632a1.417,1.417,0,0,0,.5,1.846h0a1.481,1.481,0,0,0,2.181-.559A33.3,33.3,0,0,0,66.034-.009,1.533,1.533,0,0,0,64.3,1.5Z" transform="translate(-29.003 0.02)" fill="#fff"/>
          <path id="XMLID_15_" d="M39.333,104.9A29.656,29.656,0,0,1,16.924,94.662a1.435,1.435,0,0,0-1.932-.224h0a1.5,1.5,0,0,0-.276,2.181A32.581,32.581,0,0,0,64,96.563a1.5,1.5,0,0,0-.276-2.181h0a1.435,1.435,0,0,0-1.932.224A29.719,29.719,0,0,1,39.333,104.9Z" transform="translate(-6.332 -41.86)" fill="#fff"/>
        </g>
      </g>
    </g>
    <path id="human-heart" d="M51.356,3.354C51.178,3.165,46.948-1.252,41,.348a8.282,8.282,0,0,0-5.57,5.234c-.584,1.414-2.3,1.64-4.222,1.675-.535.01-1.062.11-1.453-.255A1.352,1.352,0,0,1,29.4,5.571,9.2,9.2,0,0,1,30.523,3.34a.723.723,0,0,0-.1-.945l-.759-.7-.578-.539a.723.723,0,0,0-1.126.179c-.563,1.017-1.473,2.73-1.867,3.485a18.09,18.09,0,0,0-1.9,5.833c-.515,4.11-.446,6.566.542,9.168,3.536,9.311,10.952,15.461,16.46,13.607s6.5-13.688,3.956-21.235c-.739-2.2-2.668-3.441-5.291-4.208a1.426,1.426,0,0,1-.845-2.063,4.589,4.589,0,0,1,2.87-2.305c3.958-1.066,6.887,1.931,7,2.053a1.694,1.694,0,0,0,2.47-2.318ZM31.2,24.67a.813.813,0,0,1-1.149-.054c-3.337-3.666-4.189-9.447-4.223-9.692a.813.813,0,0,1,1.61-.229c.008.055.821,5.536,3.816,8.826A.813.813,0,0,1,31.2,24.67Zm1.485,2.7a.858.858,0,1,1,.858-.858A.858.858,0,0,1,32.68,27.365Z" transform="translate(831.656 318.807)" fill="#fff"/>
  </g>
</svg>
