<svg xmlns="http://www.w3.org/2000/svg" width="66" height="66" viewBox="0 0 66 66">
  <g id="SHOULDERS" transform="translate(-1804 -195)">
    <g id="Grupo_10094" data-name="Grupo 10094" transform="translate(1804 195)">
      <g id="Grupo_450" data-name="Grupo 450" transform="translate(0 0)">
        <g id="Grupo_301" data-name="Grupo 301" transform="translate(0 0)">
          <g id="Grupo_299" data-name="Grupo 299">
            <path id="XMLID_17_" d="M0,33.086A33.365,33.365,0,0,0,3.523,48.018a1.521,1.521,0,0,0,2.181.559h0a1.5,1.5,0,0,0,.5-1.846A30.341,30.341,0,0,1,29.36,3a1.5,1.5,0,0,0,1.286-1.454h0A1.472,1.472,0,0,0,28.969.09,33.237,33.237,0,0,0,0,33.086Z" transform="translate(0 -0.023)" fill="#fff"/>
            <path id="XMLID_16_" d="M64.3,1.5h0a1.455,1.455,0,0,0,1.286,1.454,30.327,30.327,0,0,1,26.4,30.087A30.758,30.758,0,0,1,88.8,46.632a1.417,1.417,0,0,0,.5,1.846h0a1.481,1.481,0,0,0,2.181-.559A33.3,33.3,0,0,0,66.034-.009,1.533,1.533,0,0,0,64.3,1.5Z" transform="translate(-29.003 0.02)" fill="#fff"/>
            <path id="XMLID_15_" d="M39.333,104.9A29.656,29.656,0,0,1,16.924,94.662a1.435,1.435,0,0,0-1.932-.224h0a1.5,1.5,0,0,0-.276,2.181A32.581,32.581,0,0,0,64,96.563a1.5,1.5,0,0,0-.276-2.181h0a1.435,1.435,0,0,0-1.932.224A29.719,29.719,0,0,1,39.333,104.9Z" transform="translate(-6.332 -41.86)" fill="#fff"/>
          </g>
        </g>
      </g>
    </g>
    <path id="shoulders-2" data-name="shoulders" d="M.554,19.412a1.134,1.134,0,0,1,.735-1.426l1.772-.567a1.134,1.134,0,1,1,.691,2.16l-1.772.567a1.134,1.134,0,0,1-1.426-.734Zm4.709-9.6A1.134,1.134,0,0,0,4.78,8.279L3.008,7.357A1.134,1.134,0,0,0,1.962,9.37l1.772.921a1.134,1.134,0,0,0,1.529-.483Zm5.01-5.277A1.134,1.134,0,0,0,10.7,2.986L9.78,1.355A1.134,1.134,0,1,0,7.806,2.472L8.727,4.1A1.134,1.134,0,0,0,10.272,4.531Zm9.319-1.872.354-1.2A1.134,1.134,0,1,0,17.77.814l-.354,1.2a1.134,1.134,0,1,0,2.176.64Zm14.762.493a39.2,39.2,0,0,0-13.5,3.676,10.258,10.258,0,0,0-12.6,12.43,18.355,18.355,0,0,0,.01,15.235,1.133,1.133,0,0,0,1.031.663H20.608a1.135,1.135,0,0,0,1.007-.613,20.827,20.827,0,0,0,1-15.948,1.134,1.134,0,0,1,2.153-.712,23.981,23.981,0,0,1-.083,15.423.562.562,0,0,0,.187.632,10.144,10.144,0,0,0,1.057.708,1.128,1.128,0,0,0,.569.153h7.948a1.134,1.134,0,0,0,1.134-1.134V4.282a1.135,1.135,0,0,0-1.232-1.13Z" transform="translate(1816.46 210.425)" fill="#fff"/>
  </g>
</svg>
