<svg xmlns="http://www.w3.org/2000/svg" width="66" height="66" viewBox="0 0 66 66">
  <g id="nervous-systems-branco" transform="translate(-1506 -290)">
    <g id="Bone_Joints" data-name="Bone / Joints" transform="translate(1506 290)">
      <g id="Grupo_450" data-name="Grupo 450" transform="translate(0 0)">
        <g id="Grupo_301" data-name="Grupo 301" transform="translate(0 0)">
          <g id="Grupo_299" data-name="Grupo 299">
            <path id="XMLID_17_" d="M0,33.086A33.365,33.365,0,0,0,3.523,48.018a1.521,1.521,0,0,0,2.181.559h0a1.5,1.5,0,0,0,.5-1.846A30.341,30.341,0,0,1,29.36,3a1.5,1.5,0,0,0,1.286-1.454h0A1.472,1.472,0,0,0,28.969.09,33.237,33.237,0,0,0,0,33.086Z" transform="translate(0 -0.023)" fill="#fff"/>
            <path id="XMLID_16_" d="M64.3,1.5h0a1.455,1.455,0,0,0,1.286,1.454,30.327,30.327,0,0,1,26.4,30.087A30.758,30.758,0,0,1,88.8,46.632a1.417,1.417,0,0,0,.5,1.846h0a1.481,1.481,0,0,0,2.181-.559A33.3,33.3,0,0,0,66.034-.009,1.533,1.533,0,0,0,64.3,1.5Z" transform="translate(-29.003 0.02)" fill="#fff"/>
            <path id="XMLID_15_" d="M39.333,104.9A29.656,29.656,0,0,1,16.924,94.662a1.435,1.435,0,0,0-1.932-.224h0a1.5,1.5,0,0,0-.276,2.181A32.581,32.581,0,0,0,64,96.563a1.5,1.5,0,0,0-.276-2.181h0a1.435,1.435,0,0,0-1.932.224A29.719,29.719,0,0,1,39.333,104.9Z" transform="translate(-6.332 -41.86)" fill="#fff"/>
          </g>
        </g>
      </g>
    </g>
    <path id="Shape" d="M27.41,35.465H26.292a.557.557,0,0,1-.5-.338,13.656,13.656,0,0,1-1.32-5.919v-.076a21.571,21.571,0,0,0-1.153-7.8.588.588,0,0,0-.434-.424.531.531,0,0,0-.538.228c-.1.139-2.4,3.472-1.236,9.4a8.044,8.044,0,0,1-.621,4.56.617.617,0,0,1-.514.368l-11.862,0A.568.568,0,0,1,7.6,35.1a8.041,8.041,0,0,1-.624-4.565c1.171-5.926-1.133-9.255-1.231-9.4a.541.541,0,0,0-.439-.237.472.472,0,0,0-.1.01.588.588,0,0,0-.434.423,21.571,21.571,0,0,0-1.153,7.8V29.2A15.231,15.231,0,0,1,2.305,35.12a.554.554,0,0,1-.5.345H.688a.592.592,0,0,1-.562-.57,40.8,40.8,0,0,1,.119-7.576Q.7,23.812.813,20.266a6.418,6.418,0,0,1,.714-2.723,3.136,3.136,0,0,0,.351-2.624,5.066,5.066,0,0,1,.01-3.452A5.663,5.663,0,0,1,5.483,8.2l1.079-.4c4.076-1.52,4.924-1.837,4.924-4.631a8.138,8.138,0,0,0-.33-2.343.7.7,0,0,1,.081-.569A.539.539,0,0,1,11.694,0h1.792V3.166c0,3.287-1.755,4.068-5.724,5.522L5.841,9.4a4.591,4.591,0,0,0-2.894,2.494,3.768,3.768,0,0,0-.066,2.457,4.49,4.49,0,0,1-.362,3.788,5.04,5.04,0,0,0-.585,2.127q-.078,3.086-.45,6.149v.007l-.112.937c-.018.127-.024.2-.025.206q-.208,1.979-.222,3.974a.6.6,0,0,0,.557.638h.005a.6.6,0,0,0,.562-.628q.014-1.921.215-3.831c0-.037.007-.063.007-.082v.008l.021-.155a.072.072,0,0,1,0-.027l.011-.084c.024-.19.056-.465.092-.8q.381-3.143.46-6.318a4.03,4.03,0,0,1,.487-1.607A5.765,5.765,0,0,0,3.9,13.82a2.433,2.433,0,0,1,.076-1.42A3.5,3.5,0,0,1,6.2,10.6L8.11,9.893c2.318-.849,4.238-1.557,5.377-2.981V17.1a2.29,2.29,0,0,1-1.84,2.264,2.213,2.213,0,0,0-2.631-1.574A2.533,2.533,0,0,0,7.3,20.533,2.378,2.378,0,0,0,9.5,22.8a2.352,2.352,0,0,0,2.271-2.172,4.409,4.409,0,0,0,1.718-.907V28.5a2.163,2.163,0,0,1-1.356,2.066A2.162,2.162,0,0,0,9.4,29.26a2.585,2.585,0,0,0-1.5,2.889,2.314,2.314,0,0,0,2.351,2.043,2.4,2.4,0,0,0,2.1-2.367A3.444,3.444,0,0,0,14.611,28.5V26.692a4.1,4.1,0,0,0,1.138.7,2.4,2.4,0,0,0,2.1,2.367A2.314,2.314,0,0,0,20.2,27.713a2.585,2.585,0,0,0-1.5-2.889,2.162,2.162,0,0,0-2.733,1.305,2.163,2.163,0,0,1-1.356-2.064V15.287a4.409,4.409,0,0,0,1.718.907,2.338,2.338,0,0,0,2.261,2.154,2.366,2.366,0,0,0,2.183-2.254,2.519,2.519,0,0,0-1.706-2.727,2.2,2.2,0,0,0-2.617,1.56,2.284,2.284,0,0,1-1.84-2.261V6.912c1.138,1.424,3.058,2.132,5.377,2.981l1.91.707a3.505,3.505,0,0,1,2.219,1.8,2.51,2.51,0,0,1,.092,1.383,5.835,5.835,0,0,0,.361,4.923,3.9,3.9,0,0,1,.469,1.56q.078,3.167.459,6.31c.034.338.069.614.092.8l.011.084v.017l.021.105c0,.026.007.107.01.132q.2,1.908.217,3.832a.6.6,0,0,0,.562.628h.005a.533.533,0,0,0,.4-.19.678.678,0,0,0,.161-.45,39.519,39.519,0,0,0-.225-3.953,2.071,2.071,0,0,0-.024-.228l-.112-.936q-.371-3.062-.448-6.156a5.14,5.14,0,0,0-.6-2.17,4.461,4.461,0,0,1-.33-3.776,3.773,3.773,0,0,0-.078-2.425,4.589,4.589,0,0,0-2.9-2.5l-1.919-.71c-3.97-1.454-5.724-2.235-5.724-5.522V.006H16.4a.54.54,0,0,1,.454.257.7.7,0,0,1,.08.566,8.143,8.143,0,0,0-.328,2.338c0,2.8.848,3.114,4.924,4.631l1.079.4a5.67,5.67,0,0,1,3.6,3.264,5.066,5.066,0,0,1,.01,3.452,3.135,3.135,0,0,0,.351,2.624,6.418,6.418,0,0,1,.714,2.723q.114,3.543.567,7.056A40.812,40.812,0,0,1,27.97,34.9a.592.592,0,0,1-.56.569Zm-16.732-15.2a1.2,1.2,0,0,1-1.124,1.267,1.276,1.276,0,0,1,0-2.533A1.2,1.2,0,0,1,10.677,20.266Zm.562,11.4a1.2,1.2,0,0,1-1.124,1.267,1.276,1.276,0,0,1,0-2.533A1.2,1.2,0,0,1,11.239,31.665Zm6.743-5.7a1.276,1.276,0,1,1-1.124,1.267A1.2,1.2,0,0,1,17.982,25.965ZM17.42,15.833A1.132,1.132,0,1,1,18.544,17.1,1.2,1.2,0,0,1,17.42,15.833Z" transform="translate(1525 305)" fill="#fff"/>
  </g>
</svg>
