<svg xmlns="http://www.w3.org/2000/svg" width="66" height="66" viewBox="0 0 66 66">
  <g id="KNEES" transform="translate(-78 -358)">
    <g id="Grupo_450" data-name="Grupo 450" transform="translate(78 358)">
      <g id="Grupo_301" data-name="Grupo 301" transform="translate(0)">
        <g id="Grupo_299" data-name="Grupo 299">
          <path id="XMLID_17_" d="M0,33.086A33.365,33.365,0,0,0,3.523,48.018a1.521,1.521,0,0,0,2.181.559h0a1.5,1.5,0,0,0,.5-1.846A30.341,30.341,0,0,1,29.36,3a1.5,1.5,0,0,0,1.286-1.454h0A1.472,1.472,0,0,0,28.969.09,33.237,33.237,0,0,0,0,33.086Z" transform="translate(0 -0.023)" fill="#fff"/>
          <path id="XMLID_16_" d="M64.3,1.5h0a1.455,1.455,0,0,0,1.286,1.454,30.327,30.327,0,0,1,26.4,30.087A30.758,30.758,0,0,1,88.8,46.632a1.417,1.417,0,0,0,.5,1.846h0a1.481,1.481,0,0,0,2.181-.559A33.3,33.3,0,0,0,66.034-.009,1.533,1.533,0,0,0,64.3,1.5Z" transform="translate(-29.003 0.02)" fill="#fff"/>
          <path id="XMLID_15_" d="M39.333,104.9A29.656,29.656,0,0,1,16.924,94.662a1.435,1.435,0,0,0-1.932-.224h0a1.5,1.5,0,0,0-.276,2.181A32.581,32.581,0,0,0,64,96.563a1.5,1.5,0,0,0-.276-2.181h0a1.435,1.435,0,0,0-1.932.224A29.719,29.719,0,0,1,39.333,104.9Z" transform="translate(-6.332 -41.86)" fill="#fff"/>
        </g>
      </g>
    </g>
    <g id="Grupo_10332" data-name="Grupo 10332" transform="translate(8097.918 -8900.648)">
      <path id="gym" d="M26.172,15.36a.976.976,0,0,1-.648.924,23.312,23.312,0,0,1-12.654.833.976.976,0,1,0-.392,1.912,26.723,26.723,0,0,0,4.6.535A21.183,21.183,0,0,1,17,29.512a.976.976,0,0,1-.946.739H3.274a.975.975,0,0,1-.964-.827L.124,15.241a11.827,11.827,0,0,1,.961-6.4A4.879,4.879,0,0,1,4.826,5.666,27.287,27.287,0,0,0,9.5,4.232C13.594,2.91,18.04.708,25.037.106a.977.977,0,0,1,1.059.967ZM5.716,11.449A.977.977,0,0,0,4.5,12.1l-.427,1.4a.976.976,0,0,0,1.867.568l.427-1.4A.977.977,0,0,0,5.716,11.449Z" transform="translate(-7995.855 9277.416)" fill="#fff"/>
      <rect id="Retângulo_3739" data-name="Retângulo 3739" width="2.561" height="6.952" rx="1.281" transform="matrix(0.695, -0.719, 0.719, 0.695, -8001.868, 9279.379)" fill="#fff"/>
      <rect id="Retângulo_3740" data-name="Retângulo 3740" width="2.561" height="6.952" rx="1.281" transform="translate(-7994.693 9274.113) rotate(-3)" fill="#fff"/>
      <rect id="Retângulo_3741" data-name="Retângulo 3741" width="2.561" height="6.952" rx="1.281" transform="matrix(-0.087, -0.996, 0.996, -0.087, -8004.39, 9288.55)" fill="#fff"/>
    </g>
  </g>
</svg>
